M48
;DRILL file {KiCad 4.0.6} date 01/23/18 11:03:37
;FORMAT={-:-/ absolute / inch / decimal}
FMAT,2
INCH,TZ
T1C0.016
T2C0.028
T3C0.030
T4C0.031
T5C0.039
T6C0.043
T7C0.120
%
G90
G05
M72
T1
X7.25Y-3.8
X7.25Y-4.1
X7.35Y-3.8
X7.35Y-4.1
T2
X4.8Y-5.3
X4.8Y-5.45
X5.Y-5.3
X5.Y-5.45
X5.19Y-5.335
X5.19Y-6.065
X5.29Y-5.335
X5.29Y-6.065
X5.61Y-5.335
X5.61Y-6.065
X5.71Y-5.335
X5.71Y-6.065
T3
X4.85Y-4.35
X4.85Y-4.85
X4.9Y-4.05
X4.95Y-4.35
X4.95Y-4.85
X4.9787Y-4.05
X5.05Y-4.35
X5.05Y-4.85
X5.0575Y-4.05
X5.1362Y-4.05
X5.15Y-4.35
X5.15Y-4.85
X5.25Y-4.35
X5.25Y-4.85
X5.35Y-4.35
X5.35Y-4.85
X5.45Y-4.35
X5.45Y-4.85
X5.55Y-4.35
X5.55Y-4.85
X5.75Y-4.35
X5.75Y-4.85
X5.85Y-4.35
X5.85Y-4.85
X5.95Y-4.35
X5.95Y-4.85
X6.05Y-4.35
X6.05Y-4.85
X6.15Y-4.05
X6.15Y-4.35
X6.15Y-4.85
X6.2287Y-4.05
X6.25Y-4.35
X6.25Y-4.85
X6.3075Y-4.05
X6.35Y-4.35
X6.35Y-4.85
X6.3862Y-4.05
X6.45Y-4.35
X6.45Y-4.85
X6.85Y-4.2
X6.85Y-4.3
X6.85Y-4.4
X6.85Y-4.5
X6.85Y-4.6
X6.85Y-4.7
X6.85Y-4.8
X6.85Y-4.9
X6.85Y-5.
X6.85Y-5.1
X6.85Y-5.2
X6.85Y-5.3
X6.85Y-5.4
X6.85Y-5.5
X6.85Y-5.6
X6.85Y-5.7
X6.85Y-5.8
X6.85Y-5.9
X6.85Y-6.
X7.95Y-4.2
X7.95Y-4.3
X7.95Y-4.4
X7.95Y-4.5
X7.95Y-4.6
X7.95Y-4.7
X7.95Y-4.8
X7.95Y-4.9
X7.95Y-5.
X7.95Y-5.1
X7.95Y-5.2
X7.95Y-5.3
X7.95Y-5.4
X7.95Y-5.5
X7.95Y-5.6
X7.95Y-5.7
X7.95Y-5.8
X7.95Y-5.9
X7.95Y-6.
T4
X5.9098Y-5.8331
X6.0098Y-5.8331
X6.1098Y-5.8331
X6.2098Y-5.8331
X6.3098Y-5.8331
X6.4098Y-5.8331
X6.5098Y-5.8331
X6.6098Y-5.8331
T5
X4.85Y-6.
X4.9Y-4.45
X4.9Y-4.5878
X4.95Y-5.
X4.95Y-5.1
X4.95Y-6.
X5.05Y-5.
X5.05Y-5.1
X5.15Y-5.
X5.15Y-5.1
X5.35Y-4.05
X5.45Y-4.05
X5.55Y-4.05
X5.75Y-4.05
X5.8Y-4.45
X5.8Y-4.5878
X5.85Y-4.05
X5.85Y-5.
X5.85Y-5.1
X5.95Y-4.05
X5.95Y-5.
X5.95Y-5.1
X6.05Y-5.
X6.05Y-5.1
T6
X4.8Y-5.65
X5.Y-5.65
T7
X4.65Y-4.35
X4.65Y-5.45
X6.65Y-4.15
X6.65Y-6.05
T0
M30
