G04 #@! TF.FileFunction,Copper,L2,Bot,Signal*
%FSLAX46Y46*%
G04 Gerber Fmt 4.6, Leading zero omitted, Abs format (unit mm)*
G04 Created by KiCad (PCBNEW 4.0.6) date 01/23/18 11:03:34*
%MOMM*%
%LPD*%
G01*
G04 APERTURE LIST*
%ADD10C,0.100000*%
%ADD11C,4.064000*%
%ADD12R,1.524000X1.524000*%
%ADD13C,1.524000*%
%ADD14R,1.600000X2.300000*%
%ADD15O,1.600000X2.300000*%
%ADD16O,1.510000X3.010000*%
%ADD17C,1.400000*%
%ADD18O,1.400000X1.400000*%
%ADD19C,1.510000*%
%ADD20R,2.200000X2.200000*%
%ADD21O,2.200000X2.200000*%
%ADD22R,2.000000X2.000000*%
%ADD23C,2.000000*%
%ADD24C,0.600000*%
%ADD25C,0.500000*%
G04 APERTURE END LIST*
D10*
D11*
X118110000Y-110490000D03*
X118110000Y-138430000D03*
X168910000Y-153670000D03*
D12*
X146050000Y-123190000D03*
D13*
X148590000Y-123190000D03*
X151130000Y-123190000D03*
X153670000Y-123190000D03*
X156210000Y-123190000D03*
X158750000Y-123190000D03*
X161290000Y-123190000D03*
X163830000Y-123190000D03*
X163830000Y-110490000D03*
X161290000Y-110490000D03*
X158750000Y-110490000D03*
X156210000Y-110490000D03*
X153670000Y-110490000D03*
X151130000Y-110490000D03*
X148590000Y-110490000D03*
X146050000Y-110490000D03*
D12*
X123190000Y-123190000D03*
D13*
X125730000Y-123190000D03*
X128270000Y-123190000D03*
X130810000Y-123190000D03*
X133350000Y-123190000D03*
X135890000Y-123190000D03*
X138430000Y-123190000D03*
X140970000Y-123190000D03*
X140970000Y-110490000D03*
X138430000Y-110490000D03*
X135890000Y-110490000D03*
X133350000Y-110490000D03*
X130810000Y-110490000D03*
X128270000Y-110490000D03*
X125730000Y-110490000D03*
X123190000Y-110490000D03*
X145034000Y-135509000D03*
D12*
X131826000Y-135509000D03*
D13*
X145034000Y-154051000D03*
D12*
X131826000Y-154051000D03*
X142494000Y-154051000D03*
X142494000Y-135509000D03*
D13*
X134366000Y-135509000D03*
X134366000Y-154051000D03*
X201930000Y-106680000D03*
X201930000Y-109220000D03*
X201930000Y-111760000D03*
X201930000Y-114300000D03*
X201930000Y-116840000D03*
X201930000Y-119380000D03*
X201930000Y-121920000D03*
X201930000Y-124460000D03*
X201930000Y-127000000D03*
X201930000Y-129540000D03*
X201930000Y-132080000D03*
X201930000Y-134620000D03*
X201930000Y-137160000D03*
X201930000Y-139700000D03*
X201930000Y-142240000D03*
X201930000Y-144780000D03*
X201930000Y-147320000D03*
X201930000Y-149860000D03*
X201930000Y-152400000D03*
X173990000Y-152400000D03*
X173990000Y-149860000D03*
X173990000Y-147320000D03*
X173990000Y-144780000D03*
X173990000Y-142240000D03*
X173990000Y-139700000D03*
X173990000Y-137160000D03*
X173990000Y-134620000D03*
X173990000Y-132080000D03*
X173990000Y-129540000D03*
X173990000Y-127000000D03*
X173990000Y-124460000D03*
X173990000Y-121920000D03*
X173990000Y-119380000D03*
X173990000Y-116840000D03*
X173990000Y-114300000D03*
X173990000Y-111760000D03*
X173990000Y-109220000D03*
X173990000Y-106680000D03*
D14*
X150110000Y-148160000D03*
D15*
X152650000Y-148160000D03*
X155190000Y-148160000D03*
X157730000Y-148160000D03*
X160270000Y-148160000D03*
X162810000Y-148160000D03*
X165350000Y-148160000D03*
X167890000Y-148160000D03*
D16*
X125730000Y-152400000D03*
X123190000Y-152400000D03*
D17*
X121920000Y-138430000D03*
D18*
X127000000Y-138430000D03*
D17*
X121920000Y-134620000D03*
D18*
X127000000Y-134620000D03*
D13*
X156210000Y-102870000D03*
X158210000Y-102870000D03*
X160210000Y-102870000D03*
X162210000Y-102870000D03*
X124460000Y-102870000D03*
X126460000Y-102870000D03*
X128460000Y-102870000D03*
X130460000Y-102870000D03*
D19*
X148590000Y-127000000D03*
X148590000Y-129540000D03*
X151130000Y-127000000D03*
X151130000Y-129540000D03*
X153670000Y-127000000D03*
X153670000Y-129540000D03*
D16*
X146050000Y-102870000D03*
X148590000Y-102870000D03*
X151130000Y-102870000D03*
D19*
X125730000Y-127000000D03*
X125730000Y-129540000D03*
X128270000Y-127000000D03*
X128270000Y-129540000D03*
X130810000Y-127000000D03*
X130810000Y-129540000D03*
D16*
X135890000Y-102870000D03*
X138430000Y-102870000D03*
X140970000Y-102870000D03*
D20*
X127000000Y-143510000D03*
D21*
X121920000Y-143510000D03*
D22*
X147320000Y-113030000D03*
D23*
X147320000Y-116530000D03*
D22*
X124460000Y-113030000D03*
D23*
X124460000Y-116530000D03*
D11*
X168910000Y-105410000D03*
D24*
X184150000Y-96520000D03*
X184150000Y-104140000D03*
X186690000Y-96520000D03*
X186690000Y-104140000D03*
D25*
X184150000Y-104140000D02*
X184150000Y-96520000D01*
X186690000Y-104140000D02*
X186690000Y-96520000D01*
M02*
