G04 #@! TF.FileFunction,Copper,L1,Top,Signal*
%FSLAX46Y46*%
G04 Gerber Fmt 4.6, Leading zero omitted, Abs format (unit mm)*
G04 Created by KiCad (PCBNEW 4.0.6) date 01/23/18 11:03:34*
%MOMM*%
%LPD*%
G01*
G04 APERTURE LIST*
%ADD10C,0.100000*%
%ADD11C,4.064000*%
%ADD12R,1.524000X1.524000*%
%ADD13C,1.524000*%
%ADD14R,1.600000X2.300000*%
%ADD15O,1.600000X2.300000*%
%ADD16O,1.510000X3.010000*%
%ADD17C,1.400000*%
%ADD18O,1.400000X1.400000*%
%ADD19C,1.510000*%
%ADD20R,2.200000X2.200000*%
%ADD21O,2.200000X2.200000*%
%ADD22R,2.000000X2.000000*%
%ADD23C,2.000000*%
%ADD24C,0.600000*%
%ADD25C,0.500000*%
%ADD26C,0.250000*%
%ADD27C,0.254000*%
G04 APERTURE END LIST*
D10*
D11*
X118110000Y-110490000D03*
X118110000Y-138430000D03*
X168910000Y-153670000D03*
D12*
X146050000Y-123190000D03*
D13*
X148590000Y-123190000D03*
X151130000Y-123190000D03*
X153670000Y-123190000D03*
X156210000Y-123190000D03*
X158750000Y-123190000D03*
X161290000Y-123190000D03*
X163830000Y-123190000D03*
X163830000Y-110490000D03*
X161290000Y-110490000D03*
X158750000Y-110490000D03*
X156210000Y-110490000D03*
X153670000Y-110490000D03*
X151130000Y-110490000D03*
X148590000Y-110490000D03*
X146050000Y-110490000D03*
D12*
X123190000Y-123190000D03*
D13*
X125730000Y-123190000D03*
X128270000Y-123190000D03*
X130810000Y-123190000D03*
X133350000Y-123190000D03*
X135890000Y-123190000D03*
X138430000Y-123190000D03*
X140970000Y-123190000D03*
X140970000Y-110490000D03*
X138430000Y-110490000D03*
X135890000Y-110490000D03*
X133350000Y-110490000D03*
X130810000Y-110490000D03*
X128270000Y-110490000D03*
X125730000Y-110490000D03*
X123190000Y-110490000D03*
X145034000Y-135509000D03*
D12*
X131826000Y-135509000D03*
D13*
X145034000Y-154051000D03*
D12*
X131826000Y-154051000D03*
X142494000Y-154051000D03*
X142494000Y-135509000D03*
D13*
X134366000Y-135509000D03*
X134366000Y-154051000D03*
X201930000Y-106680000D03*
X201930000Y-109220000D03*
X201930000Y-111760000D03*
X201930000Y-114300000D03*
X201930000Y-116840000D03*
X201930000Y-119380000D03*
X201930000Y-121920000D03*
X201930000Y-124460000D03*
X201930000Y-127000000D03*
X201930000Y-129540000D03*
X201930000Y-132080000D03*
X201930000Y-134620000D03*
X201930000Y-137160000D03*
X201930000Y-139700000D03*
X201930000Y-142240000D03*
X201930000Y-144780000D03*
X201930000Y-147320000D03*
X201930000Y-149860000D03*
X201930000Y-152400000D03*
X173990000Y-152400000D03*
X173990000Y-149860000D03*
X173990000Y-147320000D03*
X173990000Y-144780000D03*
X173990000Y-142240000D03*
X173990000Y-139700000D03*
X173990000Y-137160000D03*
X173990000Y-134620000D03*
X173990000Y-132080000D03*
X173990000Y-129540000D03*
X173990000Y-127000000D03*
X173990000Y-124460000D03*
X173990000Y-121920000D03*
X173990000Y-119380000D03*
X173990000Y-116840000D03*
X173990000Y-114300000D03*
X173990000Y-111760000D03*
X173990000Y-109220000D03*
X173990000Y-106680000D03*
D14*
X150110000Y-148160000D03*
D15*
X152650000Y-148160000D03*
X155190000Y-148160000D03*
X157730000Y-148160000D03*
X160270000Y-148160000D03*
X162810000Y-148160000D03*
X165350000Y-148160000D03*
X167890000Y-148160000D03*
D16*
X125730000Y-152400000D03*
X123190000Y-152400000D03*
D17*
X121920000Y-138430000D03*
D18*
X127000000Y-138430000D03*
D17*
X121920000Y-134620000D03*
D18*
X127000000Y-134620000D03*
D13*
X156210000Y-102870000D03*
X158210000Y-102870000D03*
X160210000Y-102870000D03*
X162210000Y-102870000D03*
X124460000Y-102870000D03*
X126460000Y-102870000D03*
X128460000Y-102870000D03*
X130460000Y-102870000D03*
D19*
X148590000Y-127000000D03*
X148590000Y-129540000D03*
X151130000Y-127000000D03*
X151130000Y-129540000D03*
X153670000Y-127000000D03*
X153670000Y-129540000D03*
D16*
X146050000Y-102870000D03*
X148590000Y-102870000D03*
X151130000Y-102870000D03*
D19*
X125730000Y-127000000D03*
X125730000Y-129540000D03*
X128270000Y-127000000D03*
X128270000Y-129540000D03*
X130810000Y-127000000D03*
X130810000Y-129540000D03*
D16*
X135890000Y-102870000D03*
X138430000Y-102870000D03*
X140970000Y-102870000D03*
D20*
X127000000Y-143510000D03*
D21*
X121920000Y-143510000D03*
D22*
X147320000Y-113030000D03*
D23*
X147320000Y-116530000D03*
D22*
X124460000Y-113030000D03*
D23*
X124460000Y-116530000D03*
D11*
X168910000Y-105410000D03*
D24*
X184150000Y-96520000D03*
X184150000Y-104140000D03*
X186690000Y-96520000D03*
X186690000Y-104140000D03*
D25*
X148590000Y-127000000D02*
X148590000Y-123190000D01*
X151130000Y-127000000D02*
X151130000Y-123190000D01*
X153670000Y-127000000D02*
X153670000Y-123190000D01*
D26*
X158750000Y-123190000D02*
X156210000Y-123190000D01*
D25*
X161290000Y-123190000D02*
X161290000Y-124460000D01*
X167640000Y-127000000D02*
X173990000Y-127000000D01*
X166370000Y-125730000D02*
X167640000Y-127000000D01*
X162560000Y-125730000D02*
X166370000Y-125730000D01*
X161290000Y-124460000D02*
X162560000Y-125730000D01*
X163830000Y-123190000D02*
X167640000Y-123190000D01*
X168910000Y-124460000D02*
X173990000Y-124460000D01*
X167640000Y-123190000D02*
X168910000Y-124460000D01*
X158750000Y-110490000D02*
X158750000Y-109220000D01*
X162210000Y-104490000D02*
X162210000Y-102870000D01*
X161290000Y-105410000D02*
X162210000Y-104490000D01*
X161290000Y-106680000D02*
X161290000Y-105410000D01*
X158750000Y-109220000D02*
X161290000Y-106680000D01*
X156210000Y-110490000D02*
X156210000Y-109220000D01*
X160210000Y-103950000D02*
X160210000Y-102870000D01*
X160020000Y-104140000D02*
X160210000Y-103950000D01*
X160020000Y-105410000D02*
X160020000Y-104140000D01*
X158750000Y-106680000D02*
X160020000Y-105410000D01*
X156210000Y-109220000D02*
X158750000Y-106680000D01*
X153670000Y-110490000D02*
X153670000Y-109220000D01*
X157480000Y-103600000D02*
X158210000Y-102870000D01*
X157480000Y-105410000D02*
X157480000Y-103600000D01*
X156210000Y-106680000D02*
X157480000Y-105410000D01*
X153670000Y-109220000D02*
X156210000Y-106680000D01*
X151130000Y-110490000D02*
X151130000Y-109220000D01*
X154940000Y-104140000D02*
X156210000Y-102870000D01*
X154940000Y-105410000D02*
X154940000Y-104140000D01*
X151130000Y-109220000D02*
X154940000Y-105410000D01*
X125730000Y-127000000D02*
X125730000Y-123190000D01*
X128270000Y-127000000D02*
X128270000Y-123190000D01*
X130810000Y-127000000D02*
X130810000Y-123190000D01*
D26*
X135890000Y-123190000D02*
X133350000Y-123190000D01*
D25*
X138430000Y-123190000D02*
X138430000Y-120650000D01*
X171450000Y-116840000D02*
X173990000Y-116840000D01*
X168910000Y-119380000D02*
X171450000Y-116840000D01*
X139700000Y-119380000D02*
X168910000Y-119380000D01*
X138430000Y-120650000D02*
X139700000Y-119380000D01*
X140970000Y-123190000D02*
X140970000Y-120650000D01*
X170180000Y-121920000D02*
X173990000Y-121920000D01*
X168910000Y-120650000D02*
X170180000Y-121920000D01*
X140970000Y-120650000D02*
X168910000Y-120650000D01*
X135890000Y-110490000D02*
X134620000Y-109220000D01*
X130810000Y-104140000D02*
X130810000Y-103220000D01*
X132080000Y-105410000D02*
X130810000Y-104140000D01*
X134620000Y-107950000D02*
X132080000Y-105410000D01*
X134620000Y-109220000D02*
X134620000Y-107950000D01*
X130810000Y-103220000D02*
X130460000Y-102870000D01*
D26*
X130810000Y-103220000D02*
X130460000Y-102870000D01*
D25*
X133350000Y-110490000D02*
X133350000Y-109220000D01*
X128460000Y-105220000D02*
X128460000Y-102870000D01*
X128270000Y-105410000D02*
X128460000Y-105220000D01*
X129540000Y-105410000D02*
X128270000Y-105410000D01*
X130810000Y-106680000D02*
X129540000Y-105410000D01*
X133350000Y-109220000D02*
X130810000Y-106680000D01*
X130810000Y-110490000D02*
X130810000Y-109220000D01*
X126460000Y-106140000D02*
X126460000Y-102870000D01*
X127000000Y-106680000D02*
X126460000Y-106140000D01*
X128270000Y-106680000D02*
X127000000Y-106680000D01*
X130810000Y-109220000D02*
X128270000Y-106680000D01*
X128270000Y-110490000D02*
X128270000Y-109220000D01*
X124460000Y-106680000D02*
X124460000Y-102870000D01*
X125730000Y-107950000D02*
X124460000Y-106680000D01*
X127000000Y-107950000D02*
X125730000Y-107950000D01*
X128270000Y-109220000D02*
X127000000Y-107950000D01*
X125730000Y-152400000D02*
X125730000Y-149860000D01*
X125730000Y-149860000D02*
X127000000Y-148590000D01*
X127000000Y-148590000D02*
X127000000Y-143510000D01*
D26*
X127000000Y-148590000D02*
X127000000Y-143510000D01*
X125730000Y-149860000D02*
X127000000Y-148590000D01*
D25*
X201930000Y-137160000D02*
X196850000Y-137160000D01*
X129540000Y-137160000D02*
X127000000Y-134620000D01*
X129540000Y-157480000D02*
X129540000Y-137160000D01*
X132080000Y-160020000D02*
X129540000Y-157480000D01*
X186690000Y-160020000D02*
X132080000Y-160020000D01*
X194310000Y-152400000D02*
X186690000Y-160020000D01*
X194310000Y-139700000D02*
X194310000Y-152400000D01*
X196850000Y-137160000D02*
X194310000Y-139700000D01*
X127000000Y-135890000D02*
X127000000Y-134620000D01*
X127000000Y-134620000D02*
X127000000Y-138430000D01*
D26*
X127000000Y-138430000D02*
X127000000Y-135890000D01*
X127000000Y-135890000D02*
X127000000Y-134620000D01*
D25*
X172720000Y-147320000D02*
X173990000Y-147320000D01*
X168910000Y-151130000D02*
X172720000Y-147320000D01*
X156210000Y-151130000D02*
X168910000Y-151130000D01*
X155190000Y-150110000D02*
X156210000Y-151130000D01*
X155190000Y-148160000D02*
X155190000Y-150110000D01*
X163830000Y-139700000D02*
X173990000Y-139700000D01*
X157730000Y-145800000D02*
X163830000Y-139700000D01*
X157730000Y-148160000D02*
X157730000Y-145800000D01*
X173990000Y-109220000D02*
X179070000Y-109220000D01*
X146050000Y-97790000D02*
X146050000Y-102870000D01*
X148590000Y-95250000D02*
X146050000Y-97790000D01*
X182880000Y-95250000D02*
X148590000Y-95250000D01*
X184150000Y-96520000D02*
X182880000Y-95250000D01*
X179070000Y-109220000D02*
X184150000Y-104140000D01*
X173990000Y-111760000D02*
X179070000Y-111760000D01*
X135890000Y-96520000D02*
X135890000Y-102870000D01*
X138430000Y-93980000D02*
X135890000Y-96520000D01*
X184150000Y-93980000D02*
X138430000Y-93980000D01*
X186690000Y-96520000D02*
X184150000Y-93980000D01*
X179070000Y-111760000D02*
X186690000Y-104140000D01*
X151130000Y-129540000D02*
X153670000Y-129540000D01*
X148590000Y-129540000D02*
X151130000Y-129540000D01*
X128270000Y-129540000D02*
X130810000Y-129540000D01*
X125730000Y-129540000D02*
X128270000Y-129540000D01*
X195580000Y-106680000D02*
X195580000Y-100330000D01*
X193040000Y-97790000D02*
X166370000Y-97790000D01*
X195580000Y-100330000D02*
X193040000Y-97790000D01*
X161290000Y-110490000D02*
X161290000Y-109220000D01*
X161290000Y-109220000D02*
X162560000Y-107950000D01*
X162560000Y-107950000D02*
X163830000Y-107950000D01*
X163830000Y-107950000D02*
X166370000Y-105410000D01*
X166370000Y-105410000D02*
X166370000Y-97790000D01*
X166370000Y-97790000D02*
X148590000Y-97790000D01*
X138430000Y-110490000D02*
X138430000Y-109220000D01*
X138430000Y-109220000D02*
X139700000Y-107950000D01*
X148590000Y-105410000D02*
X148590000Y-102870000D01*
X146050000Y-107950000D02*
X148590000Y-105410000D01*
X139700000Y-107950000D02*
X146050000Y-107950000D01*
X138430000Y-110490000D02*
X138430000Y-102870000D01*
X148590000Y-102870000D02*
X148590000Y-97790000D01*
X201930000Y-106680000D02*
X195580000Y-106680000D01*
X148590000Y-97790000D02*
X148590000Y-97790000D01*
X148590000Y-129540000D02*
X130810000Y-129540000D01*
X150110000Y-148160000D02*
X150110000Y-139450000D01*
X150110000Y-139450000D02*
X153670000Y-135890000D01*
X153670000Y-135890000D02*
X153670000Y-129540000D01*
X152900000Y-157480000D02*
X150110000Y-154690000D01*
X181610000Y-157480000D02*
X152900000Y-157480000D01*
X187960000Y-151130000D02*
X181610000Y-157480000D01*
X187960000Y-114300000D02*
X187960000Y-151130000D01*
X195580000Y-106680000D02*
X187960000Y-114300000D01*
X150110000Y-154690000D02*
X150110000Y-148160000D01*
X150110000Y-148160000D02*
X150110000Y-154690000D01*
X150110000Y-154690000D02*
X147320000Y-157480000D01*
X147320000Y-157480000D02*
X135890000Y-157480000D01*
X135890000Y-157480000D02*
X134620000Y-156210000D01*
X134620000Y-156210000D02*
X134620000Y-154305000D01*
X134620000Y-154305000D02*
X134366000Y-154051000D01*
X134366000Y-154051000D02*
X131826000Y-154051000D01*
D26*
X134366000Y-154051000D02*
X131826000Y-154051000D01*
X134366000Y-154051000D02*
X134366000Y-155956000D01*
X147320000Y-157480000D02*
X150110000Y-154690000D01*
X135890000Y-157480000D02*
X147320000Y-157480000D01*
X134366000Y-155956000D02*
X135890000Y-157480000D01*
D25*
X119380000Y-116840000D02*
X121920000Y-114300000D01*
X121920000Y-114300000D02*
X124460000Y-114300000D01*
X119380000Y-132080000D02*
X119380000Y-116840000D01*
X118110000Y-133350000D02*
X119380000Y-132080000D01*
X119380000Y-132080000D02*
X129540000Y-132080000D01*
X118110000Y-133350000D02*
X119380000Y-132080000D01*
X118110000Y-134620000D02*
X118110000Y-133350000D01*
X129540000Y-132080000D02*
X131826000Y-134366000D01*
X118110000Y-134620000D02*
X118110000Y-133350000D01*
X124460000Y-114300000D02*
X147320000Y-114300000D01*
X147320000Y-114300000D02*
X146050000Y-113030000D01*
X146050000Y-113030000D02*
X146050000Y-110490000D01*
X121920000Y-138430000D02*
X118110000Y-134620000D01*
X123190000Y-110490000D02*
X123190000Y-113030000D01*
X123190000Y-113030000D02*
X124460000Y-114300000D01*
X131826000Y-134366000D02*
X131826000Y-135509000D01*
X121920000Y-143510000D02*
X121920000Y-138430000D01*
D26*
X131826000Y-135509000D02*
X134366000Y-135509000D01*
D27*
G36*
X205030000Y-161850000D02*
X115010000Y-161850000D01*
X115010000Y-152527000D01*
X121800000Y-152527000D01*
X121800000Y-153277000D01*
X121954408Y-153799263D01*
X122296924Y-154222681D01*
X122775403Y-154482793D01*
X122848029Y-154497277D01*
X123063000Y-154374683D01*
X123063000Y-152527000D01*
X121800000Y-152527000D01*
X115010000Y-152527000D01*
X115010000Y-151523000D01*
X121800000Y-151523000D01*
X121800000Y-152273000D01*
X123063000Y-152273000D01*
X123063000Y-150425317D01*
X122848029Y-150302723D01*
X122775403Y-150317207D01*
X122296924Y-150577319D01*
X121954408Y-151000737D01*
X121800000Y-151523000D01*
X115010000Y-151523000D01*
X115010000Y-138958172D01*
X115442538Y-138958172D01*
X115847709Y-139938761D01*
X116597293Y-140689655D01*
X117577173Y-141096536D01*
X118638172Y-141097462D01*
X119618761Y-140692291D01*
X120369655Y-139942707D01*
X120736012Y-139060420D01*
X120787582Y-139185229D01*
X121035000Y-139433079D01*
X121035000Y-142032054D01*
X120659179Y-142283170D01*
X120283078Y-142846044D01*
X120151009Y-143510000D01*
X120283078Y-144173956D01*
X120659179Y-144736830D01*
X121222053Y-145112931D01*
X121886009Y-145245000D01*
X121953991Y-145245000D01*
X122617947Y-145112931D01*
X123180821Y-144736830D01*
X123556922Y-144173956D01*
X123688991Y-143510000D01*
X123556922Y-142846044D01*
X123180821Y-142283170D01*
X122805000Y-142032054D01*
X122805000Y-139432873D01*
X123051098Y-139187204D01*
X123254768Y-138696713D01*
X123255231Y-138165617D01*
X123052418Y-137674771D01*
X122677204Y-137298902D01*
X122186713Y-137095232D01*
X121836506Y-137094927D01*
X120296855Y-135555275D01*
X121164331Y-135555275D01*
X121226169Y-135791042D01*
X121727122Y-135967419D01*
X122257440Y-135938664D01*
X122613831Y-135791042D01*
X122675669Y-135555275D01*
X121920000Y-134799605D01*
X121164331Y-135555275D01*
X120296855Y-135555275D01*
X119168702Y-134427122D01*
X120572581Y-134427122D01*
X120601336Y-134957440D01*
X120748958Y-135313831D01*
X120984725Y-135375669D01*
X121740395Y-134620000D01*
X122099605Y-134620000D01*
X122855275Y-135375669D01*
X123091042Y-135313831D01*
X123267419Y-134812878D01*
X123238664Y-134282560D01*
X123091042Y-133926169D01*
X122855275Y-133864331D01*
X122099605Y-134620000D01*
X121740395Y-134620000D01*
X120984725Y-133864331D01*
X120748958Y-133926169D01*
X120572581Y-134427122D01*
X119168702Y-134427122D01*
X118995000Y-134253420D01*
X118995000Y-133716580D01*
X119026854Y-133684725D01*
X121164331Y-133684725D01*
X121920000Y-134440395D01*
X122675669Y-133684725D01*
X122613831Y-133448958D01*
X122112878Y-133272581D01*
X121582560Y-133301336D01*
X121226169Y-133448958D01*
X121164331Y-133684725D01*
X119026854Y-133684725D01*
X119746579Y-132965000D01*
X129173420Y-132965000D01*
X130563350Y-134354929D01*
X130467569Y-134495110D01*
X130416560Y-134747000D01*
X130416560Y-136271000D01*
X130460838Y-136506317D01*
X130599910Y-136722441D01*
X130812110Y-136867431D01*
X131064000Y-136918440D01*
X132588000Y-136918440D01*
X132823317Y-136874162D01*
X133039441Y-136735090D01*
X133184431Y-136522890D01*
X133221492Y-136339876D01*
X133573630Y-136692629D01*
X134086900Y-136905757D01*
X134642661Y-136906242D01*
X135156303Y-136694010D01*
X135549629Y-136301370D01*
X135759995Y-135794750D01*
X141097000Y-135794750D01*
X141097000Y-136397309D01*
X141193673Y-136630698D01*
X141372301Y-136809327D01*
X141605690Y-136906000D01*
X142208250Y-136906000D01*
X142367000Y-136747250D01*
X142367000Y-135636000D01*
X141255750Y-135636000D01*
X141097000Y-135794750D01*
X135759995Y-135794750D01*
X135762757Y-135788100D01*
X135763242Y-135232339D01*
X135551010Y-134718697D01*
X135453175Y-134620691D01*
X141097000Y-134620691D01*
X141097000Y-135223250D01*
X141255750Y-135382000D01*
X142367000Y-135382000D01*
X142367000Y-134270750D01*
X142621000Y-134270750D01*
X142621000Y-135382000D01*
X142641000Y-135382000D01*
X142641000Y-135636000D01*
X142621000Y-135636000D01*
X142621000Y-136747250D01*
X142779750Y-136906000D01*
X143382310Y-136906000D01*
X143615699Y-136809327D01*
X143794327Y-136630698D01*
X143852932Y-136489213D01*
X144233392Y-136489213D01*
X144302857Y-136731397D01*
X144826302Y-136918144D01*
X145381368Y-136890362D01*
X145765143Y-136731397D01*
X145834608Y-136489213D01*
X145034000Y-135688605D01*
X144233392Y-136489213D01*
X143852932Y-136489213D01*
X143891000Y-136397309D01*
X143891000Y-136262916D01*
X144053787Y-136309608D01*
X144854395Y-135509000D01*
X145213605Y-135509000D01*
X146014213Y-136309608D01*
X146256397Y-136240143D01*
X146443144Y-135716698D01*
X146415362Y-135161632D01*
X146256397Y-134777857D01*
X146014213Y-134708392D01*
X145213605Y-135509000D01*
X144854395Y-135509000D01*
X144053787Y-134708392D01*
X143891000Y-134755084D01*
X143891000Y-134620691D01*
X143852933Y-134528787D01*
X144233392Y-134528787D01*
X145034000Y-135329395D01*
X145834608Y-134528787D01*
X145765143Y-134286603D01*
X145241698Y-134099856D01*
X144686632Y-134127638D01*
X144302857Y-134286603D01*
X144233392Y-134528787D01*
X143852933Y-134528787D01*
X143794327Y-134387302D01*
X143615699Y-134208673D01*
X143382310Y-134112000D01*
X142779750Y-134112000D01*
X142621000Y-134270750D01*
X142367000Y-134270750D01*
X142208250Y-134112000D01*
X141605690Y-134112000D01*
X141372301Y-134208673D01*
X141193673Y-134387302D01*
X141097000Y-134620691D01*
X135453175Y-134620691D01*
X135158370Y-134325371D01*
X134645100Y-134112243D01*
X134089339Y-134111758D01*
X133575697Y-134323990D01*
X133222237Y-134676833D01*
X133191162Y-134511683D01*
X133052090Y-134295559D01*
X132839890Y-134150569D01*
X132660940Y-134114331D01*
X132643633Y-134027325D01*
X132621506Y-133994210D01*
X132451790Y-133740210D01*
X132451787Y-133740208D01*
X130165790Y-131454210D01*
X129919577Y-131289697D01*
X129878675Y-131262367D01*
X129822484Y-131251190D01*
X129540000Y-131194999D01*
X129539995Y-131195000D01*
X120265000Y-131195000D01*
X120265000Y-122428000D01*
X121780560Y-122428000D01*
X121780560Y-123952000D01*
X121824838Y-124187317D01*
X121963910Y-124403441D01*
X122176110Y-124548431D01*
X122428000Y-124599440D01*
X123952000Y-124599440D01*
X124187317Y-124555162D01*
X124403441Y-124416090D01*
X124548431Y-124203890D01*
X124585492Y-124020876D01*
X124845000Y-124280837D01*
X124845000Y-125919413D01*
X124552302Y-126211600D01*
X124340242Y-126722299D01*
X124339759Y-127275275D01*
X124550928Y-127786343D01*
X124941600Y-128177698D01*
X125163804Y-128269965D01*
X124943657Y-128360928D01*
X124552302Y-128751600D01*
X124340242Y-129262299D01*
X124339759Y-129815275D01*
X124550928Y-130326343D01*
X124941600Y-130717698D01*
X125452299Y-130929758D01*
X126005275Y-130930241D01*
X126516343Y-130719072D01*
X126810929Y-130425000D01*
X127189413Y-130425000D01*
X127481600Y-130717698D01*
X127992299Y-130929758D01*
X128545275Y-130930241D01*
X129056343Y-130719072D01*
X129350929Y-130425000D01*
X129729413Y-130425000D01*
X130021600Y-130717698D01*
X130532299Y-130929758D01*
X131085275Y-130930241D01*
X131596343Y-130719072D01*
X131890929Y-130425000D01*
X147509413Y-130425000D01*
X147801600Y-130717698D01*
X148312299Y-130929758D01*
X148865275Y-130930241D01*
X149376343Y-130719072D01*
X149670929Y-130425000D01*
X150049413Y-130425000D01*
X150341600Y-130717698D01*
X150852299Y-130929758D01*
X151405275Y-130930241D01*
X151916343Y-130719072D01*
X152210929Y-130425000D01*
X152589413Y-130425000D01*
X152785000Y-130620929D01*
X152785000Y-135523421D01*
X149484210Y-138824210D01*
X149292367Y-139111325D01*
X149292367Y-139111326D01*
X149224999Y-139450000D01*
X149225000Y-139450005D01*
X149225000Y-146378554D01*
X149074683Y-146406838D01*
X148858559Y-146545910D01*
X148713569Y-146758110D01*
X148662560Y-147010000D01*
X148662560Y-149310000D01*
X148706838Y-149545317D01*
X148845910Y-149761441D01*
X149058110Y-149906431D01*
X149225000Y-149940227D01*
X149225000Y-154323421D01*
X146953420Y-156595000D01*
X136256579Y-156595000D01*
X135505000Y-155843420D01*
X135505000Y-154887921D01*
X135549629Y-154843370D01*
X135759995Y-154336750D01*
X141097000Y-154336750D01*
X141097000Y-154939309D01*
X141193673Y-155172698D01*
X141372301Y-155351327D01*
X141605690Y-155448000D01*
X142208250Y-155448000D01*
X142367000Y-155289250D01*
X142367000Y-154178000D01*
X141255750Y-154178000D01*
X141097000Y-154336750D01*
X135759995Y-154336750D01*
X135762757Y-154330100D01*
X135763242Y-153774339D01*
X135551010Y-153260697D01*
X135453175Y-153162691D01*
X141097000Y-153162691D01*
X141097000Y-153765250D01*
X141255750Y-153924000D01*
X142367000Y-153924000D01*
X142367000Y-152812750D01*
X142621000Y-152812750D01*
X142621000Y-153924000D01*
X142641000Y-153924000D01*
X142641000Y-154178000D01*
X142621000Y-154178000D01*
X142621000Y-155289250D01*
X142779750Y-155448000D01*
X143382310Y-155448000D01*
X143615699Y-155351327D01*
X143794327Y-155172698D01*
X143852932Y-155031213D01*
X144233392Y-155031213D01*
X144302857Y-155273397D01*
X144826302Y-155460144D01*
X145381368Y-155432362D01*
X145765143Y-155273397D01*
X145834608Y-155031213D01*
X145034000Y-154230605D01*
X144233392Y-155031213D01*
X143852932Y-155031213D01*
X143891000Y-154939309D01*
X143891000Y-154804916D01*
X144053787Y-154851608D01*
X144854395Y-154051000D01*
X145213605Y-154051000D01*
X146014213Y-154851608D01*
X146256397Y-154782143D01*
X146443144Y-154258698D01*
X146415362Y-153703632D01*
X146256397Y-153319857D01*
X146014213Y-153250392D01*
X145213605Y-154051000D01*
X144854395Y-154051000D01*
X144053787Y-153250392D01*
X143891000Y-153297084D01*
X143891000Y-153162691D01*
X143852933Y-153070787D01*
X144233392Y-153070787D01*
X145034000Y-153871395D01*
X145834608Y-153070787D01*
X145765143Y-152828603D01*
X145241698Y-152641856D01*
X144686632Y-152669638D01*
X144302857Y-152828603D01*
X144233392Y-153070787D01*
X143852933Y-153070787D01*
X143794327Y-152929302D01*
X143615699Y-152750673D01*
X143382310Y-152654000D01*
X142779750Y-152654000D01*
X142621000Y-152812750D01*
X142367000Y-152812750D01*
X142208250Y-152654000D01*
X141605690Y-152654000D01*
X141372301Y-152750673D01*
X141193673Y-152929302D01*
X141097000Y-153162691D01*
X135453175Y-153162691D01*
X135158370Y-152867371D01*
X134645100Y-152654243D01*
X134089339Y-152653758D01*
X133575697Y-152865990D01*
X133275163Y-153166000D01*
X133212296Y-153166000D01*
X133191162Y-153053683D01*
X133052090Y-152837559D01*
X132839890Y-152692569D01*
X132588000Y-152641560D01*
X131064000Y-152641560D01*
X130828683Y-152685838D01*
X130612559Y-152824910D01*
X130467569Y-153037110D01*
X130425000Y-153247322D01*
X130425000Y-137160000D01*
X130357633Y-136821325D01*
X130165790Y-136534210D01*
X130165787Y-136534208D01*
X128342974Y-134711395D01*
X128361154Y-134620000D01*
X128259533Y-134109118D01*
X127970142Y-133676012D01*
X127537036Y-133386621D01*
X127026154Y-133285000D01*
X126973846Y-133285000D01*
X126462964Y-133386621D01*
X126029858Y-133676012D01*
X125740467Y-134109118D01*
X125638846Y-134620000D01*
X125740467Y-135130882D01*
X126029858Y-135563988D01*
X126115000Y-135620878D01*
X126115000Y-137429122D01*
X126029858Y-137486012D01*
X125740467Y-137919118D01*
X125638846Y-138430000D01*
X125740467Y-138940882D01*
X126029858Y-139373988D01*
X126462964Y-139663379D01*
X126973846Y-139765000D01*
X127026154Y-139765000D01*
X127537036Y-139663379D01*
X127970142Y-139373988D01*
X128259533Y-138940882D01*
X128361154Y-138430000D01*
X128259533Y-137919118D01*
X127970142Y-137486012D01*
X127885000Y-137429122D01*
X127885000Y-136756579D01*
X128655000Y-137526579D01*
X128655000Y-142099837D01*
X128564090Y-141958559D01*
X128351890Y-141813569D01*
X128100000Y-141762560D01*
X125900000Y-141762560D01*
X125664683Y-141806838D01*
X125448559Y-141945910D01*
X125303569Y-142158110D01*
X125252560Y-142410000D01*
X125252560Y-144610000D01*
X125296838Y-144845317D01*
X125435910Y-145061441D01*
X125648110Y-145206431D01*
X125900000Y-145257440D01*
X126115000Y-145257440D01*
X126115000Y-148223421D01*
X125104210Y-149234210D01*
X124912367Y-149521325D01*
X124912367Y-149521326D01*
X124844999Y-149860000D01*
X124845000Y-149860005D01*
X124845000Y-150559797D01*
X124747122Y-150625197D01*
X124447249Y-151073987D01*
X124425592Y-151000737D01*
X124083076Y-150577319D01*
X123604597Y-150317207D01*
X123531971Y-150302723D01*
X123317000Y-150425317D01*
X123317000Y-152273000D01*
X123337000Y-152273000D01*
X123337000Y-152527000D01*
X123317000Y-152527000D01*
X123317000Y-154374683D01*
X123531971Y-154497277D01*
X123604597Y-154482793D01*
X124083076Y-154222681D01*
X124425592Y-153799263D01*
X124447249Y-153726013D01*
X124747122Y-154174803D01*
X125198070Y-154476118D01*
X125730000Y-154581925D01*
X126261930Y-154476118D01*
X126712878Y-154174803D01*
X127014193Y-153723855D01*
X127120000Y-153191925D01*
X127120000Y-151608075D01*
X127014193Y-151076145D01*
X126712878Y-150625197D01*
X126615000Y-150559797D01*
X126615000Y-150226580D01*
X127625787Y-149215792D01*
X127625790Y-149215790D01*
X127817633Y-148928675D01*
X127859690Y-148717242D01*
X127885001Y-148590000D01*
X127885000Y-148589995D01*
X127885000Y-145257440D01*
X128100000Y-145257440D01*
X128335317Y-145213162D01*
X128551441Y-145074090D01*
X128655000Y-144922526D01*
X128655000Y-157479995D01*
X128654999Y-157480000D01*
X128711190Y-157762484D01*
X128722367Y-157818675D01*
X128855151Y-158017401D01*
X128914210Y-158105790D01*
X131454208Y-160645787D01*
X131454210Y-160645790D01*
X131741325Y-160837633D01*
X132080000Y-160905000D01*
X186689995Y-160905000D01*
X186690000Y-160905001D01*
X186972484Y-160848810D01*
X187028675Y-160837633D01*
X187315790Y-160645790D01*
X187315791Y-160645789D01*
X194935787Y-153025792D01*
X194935790Y-153025790D01*
X195127633Y-152738675D01*
X195195000Y-152400000D01*
X195195000Y-140066580D01*
X197216579Y-138045000D01*
X200839522Y-138045000D01*
X201137630Y-138343629D01*
X201345512Y-138429949D01*
X201139697Y-138514990D01*
X200746371Y-138907630D01*
X200533243Y-139420900D01*
X200532758Y-139976661D01*
X200744990Y-140490303D01*
X201137630Y-140883629D01*
X201345512Y-140969949D01*
X201139697Y-141054990D01*
X200746371Y-141447630D01*
X200533243Y-141960900D01*
X200532758Y-142516661D01*
X200744990Y-143030303D01*
X201137630Y-143423629D01*
X201345512Y-143509949D01*
X201139697Y-143594990D01*
X200746371Y-143987630D01*
X200533243Y-144500900D01*
X200532758Y-145056661D01*
X200744990Y-145570303D01*
X201137630Y-145963629D01*
X201345512Y-146049949D01*
X201139697Y-146134990D01*
X200746371Y-146527630D01*
X200533243Y-147040900D01*
X200532758Y-147596661D01*
X200744990Y-148110303D01*
X201137630Y-148503629D01*
X201345512Y-148589949D01*
X201139697Y-148674990D01*
X200746371Y-149067630D01*
X200533243Y-149580900D01*
X200532758Y-150136661D01*
X200744990Y-150650303D01*
X201137630Y-151043629D01*
X201345512Y-151129949D01*
X201139697Y-151214990D01*
X200746371Y-151607630D01*
X200533243Y-152120900D01*
X200532758Y-152676661D01*
X200744990Y-153190303D01*
X201137630Y-153583629D01*
X201650900Y-153796757D01*
X202206661Y-153797242D01*
X202720303Y-153585010D01*
X203113629Y-153192370D01*
X203326757Y-152679100D01*
X203327242Y-152123339D01*
X203115010Y-151609697D01*
X202722370Y-151216371D01*
X202514488Y-151130051D01*
X202720303Y-151045010D01*
X203113629Y-150652370D01*
X203326757Y-150139100D01*
X203327242Y-149583339D01*
X203115010Y-149069697D01*
X202722370Y-148676371D01*
X202514488Y-148590051D01*
X202720303Y-148505010D01*
X203113629Y-148112370D01*
X203326757Y-147599100D01*
X203327242Y-147043339D01*
X203115010Y-146529697D01*
X202722370Y-146136371D01*
X202514488Y-146050051D01*
X202720303Y-145965010D01*
X203113629Y-145572370D01*
X203326757Y-145059100D01*
X203327242Y-144503339D01*
X203115010Y-143989697D01*
X202722370Y-143596371D01*
X202514488Y-143510051D01*
X202720303Y-143425010D01*
X203113629Y-143032370D01*
X203326757Y-142519100D01*
X203327242Y-141963339D01*
X203115010Y-141449697D01*
X202722370Y-141056371D01*
X202514488Y-140970051D01*
X202720303Y-140885010D01*
X203113629Y-140492370D01*
X203326757Y-139979100D01*
X203327242Y-139423339D01*
X203115010Y-138909697D01*
X202722370Y-138516371D01*
X202514488Y-138430051D01*
X202720303Y-138345010D01*
X203113629Y-137952370D01*
X203326757Y-137439100D01*
X203327242Y-136883339D01*
X203115010Y-136369697D01*
X202722370Y-135976371D01*
X202514488Y-135890051D01*
X202720303Y-135805010D01*
X203113629Y-135412370D01*
X203326757Y-134899100D01*
X203327242Y-134343339D01*
X203115010Y-133829697D01*
X202722370Y-133436371D01*
X202514488Y-133350051D01*
X202720303Y-133265010D01*
X203113629Y-132872370D01*
X203326757Y-132359100D01*
X203327242Y-131803339D01*
X203115010Y-131289697D01*
X202722370Y-130896371D01*
X202514488Y-130810051D01*
X202720303Y-130725010D01*
X203113629Y-130332370D01*
X203326757Y-129819100D01*
X203327242Y-129263339D01*
X203115010Y-128749697D01*
X202722370Y-128356371D01*
X202514488Y-128270051D01*
X202720303Y-128185010D01*
X203113629Y-127792370D01*
X203326757Y-127279100D01*
X203327242Y-126723339D01*
X203115010Y-126209697D01*
X202722370Y-125816371D01*
X202514488Y-125730051D01*
X202720303Y-125645010D01*
X203113629Y-125252370D01*
X203326757Y-124739100D01*
X203327242Y-124183339D01*
X203115010Y-123669697D01*
X202722370Y-123276371D01*
X202514488Y-123190051D01*
X202720303Y-123105010D01*
X203113629Y-122712370D01*
X203326757Y-122199100D01*
X203327242Y-121643339D01*
X203115010Y-121129697D01*
X202722370Y-120736371D01*
X202530273Y-120656605D01*
X202661143Y-120602397D01*
X202730608Y-120360213D01*
X201930000Y-119559605D01*
X201129392Y-120360213D01*
X201198857Y-120602397D01*
X201339318Y-120652509D01*
X201139697Y-120734990D01*
X200746371Y-121127630D01*
X200533243Y-121640900D01*
X200532758Y-122196661D01*
X200744990Y-122710303D01*
X201137630Y-123103629D01*
X201345512Y-123189949D01*
X201139697Y-123274990D01*
X200746371Y-123667630D01*
X200533243Y-124180900D01*
X200532758Y-124736661D01*
X200744990Y-125250303D01*
X201137630Y-125643629D01*
X201345512Y-125729949D01*
X201139697Y-125814990D01*
X200746371Y-126207630D01*
X200533243Y-126720900D01*
X200532758Y-127276661D01*
X200744990Y-127790303D01*
X201137630Y-128183629D01*
X201345512Y-128269949D01*
X201139697Y-128354990D01*
X200746371Y-128747630D01*
X200533243Y-129260900D01*
X200532758Y-129816661D01*
X200744990Y-130330303D01*
X201137630Y-130723629D01*
X201345512Y-130809949D01*
X201139697Y-130894990D01*
X200746371Y-131287630D01*
X200533243Y-131800900D01*
X200532758Y-132356661D01*
X200744990Y-132870303D01*
X201137630Y-133263629D01*
X201345512Y-133349949D01*
X201139697Y-133434990D01*
X200746371Y-133827630D01*
X200533243Y-134340900D01*
X200532758Y-134896661D01*
X200744990Y-135410303D01*
X201137630Y-135803629D01*
X201345512Y-135889949D01*
X201139697Y-135974990D01*
X200839163Y-136275000D01*
X196850000Y-136275000D01*
X196511325Y-136342367D01*
X196224210Y-136534210D01*
X196224208Y-136534213D01*
X193684210Y-139074210D01*
X193492367Y-139361325D01*
X193492367Y-139361326D01*
X193424999Y-139700000D01*
X193425000Y-139700005D01*
X193425000Y-152033421D01*
X186323420Y-159135000D01*
X132446579Y-159135000D01*
X130425000Y-157113420D01*
X130425000Y-154857855D01*
X130460838Y-155048317D01*
X130599910Y-155264441D01*
X130812110Y-155409431D01*
X131064000Y-155460440D01*
X132588000Y-155460440D01*
X132823317Y-155416162D01*
X133039441Y-155277090D01*
X133184431Y-155064890D01*
X133210532Y-154936000D01*
X133275522Y-154936000D01*
X133573630Y-155234629D01*
X133606000Y-155248070D01*
X133606000Y-155956000D01*
X133663852Y-156246839D01*
X133775592Y-156414070D01*
X133791190Y-156492484D01*
X133802367Y-156548675D01*
X133916842Y-156720000D01*
X133994210Y-156835790D01*
X135264208Y-158105787D01*
X135264210Y-158105790D01*
X135465071Y-158240000D01*
X135551325Y-158297633D01*
X135890000Y-158365001D01*
X135890005Y-158365000D01*
X147319995Y-158365000D01*
X147320000Y-158365001D01*
X147602484Y-158308810D01*
X147658675Y-158297633D01*
X147945790Y-158105790D01*
X150110000Y-155941580D01*
X152274208Y-158105787D01*
X152274210Y-158105790D01*
X152561325Y-158297633D01*
X152617516Y-158308810D01*
X152900000Y-158365001D01*
X152900005Y-158365000D01*
X181609995Y-158365000D01*
X181610000Y-158365001D01*
X181892484Y-158308810D01*
X181948675Y-158297633D01*
X182235790Y-158105790D01*
X182235791Y-158105789D01*
X188585787Y-151755792D01*
X188585790Y-151755790D01*
X188777633Y-151468675D01*
X188777633Y-151468674D01*
X188845001Y-151130000D01*
X188845000Y-151129995D01*
X188845000Y-119172302D01*
X200520856Y-119172302D01*
X200548638Y-119727368D01*
X200707603Y-120111143D01*
X200949787Y-120180608D01*
X201750395Y-119380000D01*
X202109605Y-119380000D01*
X202910213Y-120180608D01*
X203152397Y-120111143D01*
X203339144Y-119587698D01*
X203311362Y-119032632D01*
X203152397Y-118648857D01*
X202910213Y-118579392D01*
X202109605Y-119380000D01*
X201750395Y-119380000D01*
X200949787Y-118579392D01*
X200707603Y-118648857D01*
X200520856Y-119172302D01*
X188845000Y-119172302D01*
X188845000Y-114666580D01*
X195946579Y-107565000D01*
X200839522Y-107565000D01*
X201137630Y-107863629D01*
X201345512Y-107949949D01*
X201139697Y-108034990D01*
X200746371Y-108427630D01*
X200533243Y-108940900D01*
X200532758Y-109496661D01*
X200744990Y-110010303D01*
X201137630Y-110403629D01*
X201345512Y-110489949D01*
X201139697Y-110574990D01*
X200746371Y-110967630D01*
X200533243Y-111480900D01*
X200532758Y-112036661D01*
X200744990Y-112550303D01*
X201137630Y-112943629D01*
X201345512Y-113029949D01*
X201139697Y-113114990D01*
X200746371Y-113507630D01*
X200533243Y-114020900D01*
X200532758Y-114576661D01*
X200744990Y-115090303D01*
X201137630Y-115483629D01*
X201345512Y-115569949D01*
X201139697Y-115654990D01*
X200746371Y-116047630D01*
X200533243Y-116560900D01*
X200532758Y-117116661D01*
X200744990Y-117630303D01*
X201137630Y-118023629D01*
X201329727Y-118103395D01*
X201198857Y-118157603D01*
X201129392Y-118399787D01*
X201930000Y-119200395D01*
X202730608Y-118399787D01*
X202661143Y-118157603D01*
X202520682Y-118107491D01*
X202720303Y-118025010D01*
X203113629Y-117632370D01*
X203326757Y-117119100D01*
X203327242Y-116563339D01*
X203115010Y-116049697D01*
X202722370Y-115656371D01*
X202514488Y-115570051D01*
X202720303Y-115485010D01*
X203113629Y-115092370D01*
X203326757Y-114579100D01*
X203327242Y-114023339D01*
X203115010Y-113509697D01*
X202722370Y-113116371D01*
X202514488Y-113030051D01*
X202720303Y-112945010D01*
X203113629Y-112552370D01*
X203326757Y-112039100D01*
X203327242Y-111483339D01*
X203115010Y-110969697D01*
X202722370Y-110576371D01*
X202514488Y-110490051D01*
X202720303Y-110405010D01*
X203113629Y-110012370D01*
X203326757Y-109499100D01*
X203327242Y-108943339D01*
X203115010Y-108429697D01*
X202722370Y-108036371D01*
X202514488Y-107950051D01*
X202720303Y-107865010D01*
X203113629Y-107472370D01*
X203326757Y-106959100D01*
X203327242Y-106403339D01*
X203115010Y-105889697D01*
X202722370Y-105496371D01*
X202209100Y-105283243D01*
X201653339Y-105282758D01*
X201139697Y-105494990D01*
X200839163Y-105795000D01*
X196465000Y-105795000D01*
X196465000Y-100330000D01*
X196397633Y-99991325D01*
X196205790Y-99704210D01*
X196205787Y-99704208D01*
X193665790Y-97164210D01*
X193638221Y-97145789D01*
X193378675Y-96972367D01*
X193322484Y-96961190D01*
X193040000Y-96904999D01*
X193039995Y-96905000D01*
X187542537Y-96905000D01*
X187624838Y-96706799D01*
X187625162Y-96334833D01*
X187483117Y-95991057D01*
X187220327Y-95727808D01*
X187099013Y-95677434D01*
X184775790Y-93354210D01*
X184488675Y-93162367D01*
X184432484Y-93151190D01*
X184150000Y-93094999D01*
X184149995Y-93095000D01*
X138430000Y-93095000D01*
X138091325Y-93162367D01*
X137804210Y-93354210D01*
X137804208Y-93354213D01*
X135264210Y-95894210D01*
X135072367Y-96181325D01*
X135072367Y-96181326D01*
X135004999Y-96520000D01*
X135005000Y-96520005D01*
X135005000Y-101029797D01*
X134907122Y-101095197D01*
X134605807Y-101546145D01*
X134500000Y-102078075D01*
X134500000Y-103661925D01*
X134605807Y-104193855D01*
X134907122Y-104644803D01*
X135358070Y-104946118D01*
X135890000Y-105051925D01*
X136421930Y-104946118D01*
X136872878Y-104644803D01*
X137160000Y-104215096D01*
X137447122Y-104644803D01*
X137545000Y-104710203D01*
X137545000Y-109219995D01*
X137544999Y-109220000D01*
X137545000Y-109220005D01*
X137545000Y-109399522D01*
X137246371Y-109697630D01*
X137160051Y-109905512D01*
X137075010Y-109699697D01*
X136682370Y-109306371D01*
X136169100Y-109093243D01*
X135744452Y-109092872D01*
X135505000Y-108853420D01*
X135505000Y-107950000D01*
X135437633Y-107611325D01*
X135245790Y-107324210D01*
X135245787Y-107324208D01*
X132705790Y-104784210D01*
X132705787Y-104784208D01*
X131695000Y-103773420D01*
X131695000Y-103538655D01*
X131856757Y-103149100D01*
X131857242Y-102593339D01*
X131645010Y-102079697D01*
X131252370Y-101686371D01*
X130739100Y-101473243D01*
X130183339Y-101472758D01*
X129669697Y-101684990D01*
X129459979Y-101894342D01*
X129252370Y-101686371D01*
X128739100Y-101473243D01*
X128183339Y-101472758D01*
X127669697Y-101684990D01*
X127459979Y-101894342D01*
X127252370Y-101686371D01*
X126739100Y-101473243D01*
X126183339Y-101472758D01*
X125669697Y-101684990D01*
X125459979Y-101894342D01*
X125252370Y-101686371D01*
X124739100Y-101473243D01*
X124183339Y-101472758D01*
X123669697Y-101684990D01*
X123276371Y-102077630D01*
X123063243Y-102590900D01*
X123062758Y-103146661D01*
X123274990Y-103660303D01*
X123575000Y-103960837D01*
X123575000Y-106679995D01*
X123574999Y-106680000D01*
X123622493Y-106918761D01*
X123642367Y-107018675D01*
X123834209Y-107305789D01*
X123834210Y-107305790D01*
X125104208Y-108575787D01*
X125104210Y-108575790D01*
X125391325Y-108767633D01*
X125730000Y-108835001D01*
X125730005Y-108835000D01*
X126633420Y-108835000D01*
X127291390Y-109492969D01*
X127086371Y-109697630D01*
X127006605Y-109889727D01*
X126952397Y-109758857D01*
X126710213Y-109689392D01*
X125909605Y-110490000D01*
X126710213Y-111290608D01*
X126952397Y-111221143D01*
X127002509Y-111080682D01*
X127084990Y-111280303D01*
X127477630Y-111673629D01*
X127990900Y-111886757D01*
X128546661Y-111887242D01*
X129060303Y-111675010D01*
X129453629Y-111282370D01*
X129539949Y-111074488D01*
X129624990Y-111280303D01*
X130017630Y-111673629D01*
X130530900Y-111886757D01*
X131086661Y-111887242D01*
X131600303Y-111675010D01*
X131993629Y-111282370D01*
X132079949Y-111074488D01*
X132164990Y-111280303D01*
X132557630Y-111673629D01*
X133070900Y-111886757D01*
X133626661Y-111887242D01*
X134140303Y-111675010D01*
X134533629Y-111282370D01*
X134619949Y-111074488D01*
X134704990Y-111280303D01*
X135097630Y-111673629D01*
X135610900Y-111886757D01*
X136166661Y-111887242D01*
X136680303Y-111675010D01*
X137073629Y-111282370D01*
X137159949Y-111074488D01*
X137244990Y-111280303D01*
X137637630Y-111673629D01*
X138150900Y-111886757D01*
X138706661Y-111887242D01*
X139220303Y-111675010D01*
X139425457Y-111470213D01*
X140169392Y-111470213D01*
X140238857Y-111712397D01*
X140762302Y-111899144D01*
X141317368Y-111871362D01*
X141701143Y-111712397D01*
X141770608Y-111470213D01*
X140970000Y-110669605D01*
X140169392Y-111470213D01*
X139425457Y-111470213D01*
X139613629Y-111282370D01*
X139693395Y-111090273D01*
X139747603Y-111221143D01*
X139989787Y-111290608D01*
X140790395Y-110490000D01*
X141149605Y-110490000D01*
X141950213Y-111290608D01*
X142192397Y-111221143D01*
X142379144Y-110697698D01*
X142351362Y-110142632D01*
X142192397Y-109758857D01*
X141950213Y-109689392D01*
X141149605Y-110490000D01*
X140790395Y-110490000D01*
X139989787Y-109689392D01*
X139747603Y-109758857D01*
X139697491Y-109899318D01*
X139615010Y-109699697D01*
X139425432Y-109509787D01*
X140169392Y-109509787D01*
X140970000Y-110310395D01*
X141770608Y-109509787D01*
X141701143Y-109267603D01*
X141177698Y-109080856D01*
X140622632Y-109108638D01*
X140238857Y-109267603D01*
X140169392Y-109509787D01*
X139425432Y-109509787D01*
X139408627Y-109492953D01*
X140066579Y-108835000D01*
X146049995Y-108835000D01*
X146050000Y-108835001D01*
X146332484Y-108778810D01*
X146388675Y-108767633D01*
X146675790Y-108575790D01*
X146675791Y-108575789D01*
X149215787Y-106035792D01*
X149215790Y-106035790D01*
X149407633Y-105748675D01*
X149475000Y-105410000D01*
X149475000Y-104710203D01*
X149572878Y-104644803D01*
X149872751Y-104196013D01*
X149894408Y-104269263D01*
X150236924Y-104692681D01*
X150715403Y-104952793D01*
X150788029Y-104967277D01*
X151003000Y-104844683D01*
X151003000Y-102997000D01*
X151257000Y-102997000D01*
X151257000Y-104844683D01*
X151471971Y-104967277D01*
X151544597Y-104952793D01*
X152023076Y-104692681D01*
X152365592Y-104269263D01*
X152520000Y-103747000D01*
X152520000Y-102997000D01*
X151257000Y-102997000D01*
X151003000Y-102997000D01*
X150983000Y-102997000D01*
X150983000Y-102743000D01*
X151003000Y-102743000D01*
X151003000Y-100895317D01*
X151257000Y-100895317D01*
X151257000Y-102743000D01*
X152520000Y-102743000D01*
X152520000Y-101993000D01*
X152365592Y-101470737D01*
X152023076Y-101047319D01*
X151544597Y-100787207D01*
X151471971Y-100772723D01*
X151257000Y-100895317D01*
X151003000Y-100895317D01*
X150788029Y-100772723D01*
X150715403Y-100787207D01*
X150236924Y-101047319D01*
X149894408Y-101470737D01*
X149872751Y-101543987D01*
X149572878Y-101095197D01*
X149475000Y-101029797D01*
X149475000Y-98675000D01*
X165485000Y-98675000D01*
X165485000Y-105043421D01*
X163463420Y-107065000D01*
X162560005Y-107065000D01*
X162560000Y-107064999D01*
X162221325Y-107132367D01*
X161934210Y-107324210D01*
X161934208Y-107324213D01*
X160664210Y-108594210D01*
X160472367Y-108881325D01*
X160472367Y-108881326D01*
X160404999Y-109220000D01*
X160405000Y-109220005D01*
X160405000Y-109399522D01*
X160106371Y-109697630D01*
X160020051Y-109905512D01*
X159935010Y-109699697D01*
X159728627Y-109492953D01*
X161915787Y-107305792D01*
X161915790Y-107305790D01*
X162107633Y-107018675D01*
X162175000Y-106680000D01*
X162175000Y-105776580D01*
X162835787Y-105115792D01*
X162835790Y-105115790D01*
X163027633Y-104828675D01*
X163095000Y-104490000D01*
X163095000Y-103960478D01*
X163393629Y-103662370D01*
X163606757Y-103149100D01*
X163607242Y-102593339D01*
X163395010Y-102079697D01*
X163002370Y-101686371D01*
X162489100Y-101473243D01*
X161933339Y-101472758D01*
X161419697Y-101684990D01*
X161209979Y-101894342D01*
X161002370Y-101686371D01*
X160489100Y-101473243D01*
X159933339Y-101472758D01*
X159419697Y-101684990D01*
X159209979Y-101894342D01*
X159002370Y-101686371D01*
X158489100Y-101473243D01*
X157933339Y-101472758D01*
X157419697Y-101684990D01*
X157209979Y-101894342D01*
X157002370Y-101686371D01*
X156489100Y-101473243D01*
X155933339Y-101472758D01*
X155419697Y-101684990D01*
X155026371Y-102077630D01*
X154813243Y-102590900D01*
X154812872Y-103015548D01*
X154314210Y-103514210D01*
X154122367Y-103801325D01*
X154122367Y-103801326D01*
X154054999Y-104140000D01*
X154055000Y-104140005D01*
X154055000Y-105043421D01*
X150504210Y-108594210D01*
X150312367Y-108881325D01*
X150312367Y-108881326D01*
X150244999Y-109220000D01*
X150245000Y-109220005D01*
X150245000Y-109399522D01*
X149946371Y-109697630D01*
X149866605Y-109889727D01*
X149812397Y-109758857D01*
X149570213Y-109689392D01*
X148769605Y-110490000D01*
X149570213Y-111290608D01*
X149812397Y-111221143D01*
X149862509Y-111080682D01*
X149944990Y-111280303D01*
X150337630Y-111673629D01*
X150850900Y-111886757D01*
X151406661Y-111887242D01*
X151920303Y-111675010D01*
X152313629Y-111282370D01*
X152399949Y-111074488D01*
X152484990Y-111280303D01*
X152877630Y-111673629D01*
X153390900Y-111886757D01*
X153946661Y-111887242D01*
X154460303Y-111675010D01*
X154853629Y-111282370D01*
X154939949Y-111074488D01*
X155024990Y-111280303D01*
X155417630Y-111673629D01*
X155930900Y-111886757D01*
X156486661Y-111887242D01*
X157000303Y-111675010D01*
X157393629Y-111282370D01*
X157479949Y-111074488D01*
X157564990Y-111280303D01*
X157957630Y-111673629D01*
X158470900Y-111886757D01*
X159026661Y-111887242D01*
X159540303Y-111675010D01*
X159933629Y-111282370D01*
X160019949Y-111074488D01*
X160104990Y-111280303D01*
X160497630Y-111673629D01*
X161010900Y-111886757D01*
X161566661Y-111887242D01*
X162080303Y-111675010D01*
X162285457Y-111470213D01*
X163029392Y-111470213D01*
X163098857Y-111712397D01*
X163622302Y-111899144D01*
X164177368Y-111871362D01*
X164561143Y-111712397D01*
X164630608Y-111470213D01*
X163830000Y-110669605D01*
X163029392Y-111470213D01*
X162285457Y-111470213D01*
X162473629Y-111282370D01*
X162553395Y-111090273D01*
X162607603Y-111221143D01*
X162849787Y-111290608D01*
X163650395Y-110490000D01*
X164009605Y-110490000D01*
X164810213Y-111290608D01*
X165052397Y-111221143D01*
X165239144Y-110697698D01*
X165211362Y-110142632D01*
X165052397Y-109758857D01*
X164810213Y-109689392D01*
X164009605Y-110490000D01*
X163650395Y-110490000D01*
X162849787Y-109689392D01*
X162607603Y-109758857D01*
X162557491Y-109899318D01*
X162475010Y-109699697D01*
X162285432Y-109509787D01*
X163029392Y-109509787D01*
X163830000Y-110310395D01*
X164630608Y-109509787D01*
X164561143Y-109267603D01*
X164037698Y-109080856D01*
X163482632Y-109108638D01*
X163098857Y-109267603D01*
X163029392Y-109509787D01*
X162285432Y-109509787D01*
X162268627Y-109492953D01*
X162926579Y-108835000D01*
X163829995Y-108835000D01*
X163830000Y-108835001D01*
X164112484Y-108778810D01*
X164168675Y-108767633D01*
X164455790Y-108575790D01*
X166491317Y-106540263D01*
X166647709Y-106918761D01*
X167397293Y-107669655D01*
X168377173Y-108076536D01*
X169438172Y-108077462D01*
X170418761Y-107672291D01*
X171169655Y-106922707D01*
X171576536Y-105942827D01*
X171577462Y-104881828D01*
X171172291Y-103901239D01*
X170422707Y-103150345D01*
X169442827Y-102743464D01*
X168381828Y-102742538D01*
X167401239Y-103147709D01*
X167255000Y-103293693D01*
X167255000Y-98675000D01*
X192673420Y-98675000D01*
X194695000Y-100696579D01*
X194695000Y-106313421D01*
X187334210Y-113674210D01*
X187142367Y-113961325D01*
X187142367Y-113961326D01*
X187074999Y-114300000D01*
X187075000Y-114300005D01*
X187075000Y-150763421D01*
X181243420Y-156595000D01*
X153266579Y-156595000D01*
X150995000Y-154323420D01*
X150995000Y-149941446D01*
X151145317Y-149913162D01*
X151361441Y-149774090D01*
X151506431Y-149561890D01*
X151541906Y-149386709D01*
X151725104Y-149614500D01*
X152218181Y-149884367D01*
X152300961Y-149901904D01*
X152523000Y-149779915D01*
X152523000Y-148287000D01*
X152503000Y-148287000D01*
X152503000Y-148033000D01*
X152523000Y-148033000D01*
X152523000Y-146540085D01*
X152300961Y-146418096D01*
X152218181Y-146435633D01*
X151725104Y-146705500D01*
X151542798Y-146932182D01*
X151513162Y-146774683D01*
X151374090Y-146558559D01*
X151161890Y-146413569D01*
X150995000Y-146379773D01*
X150995000Y-139816580D01*
X154295787Y-136515792D01*
X154295790Y-136515790D01*
X154487633Y-136228675D01*
X154529690Y-136017242D01*
X154555001Y-135890000D01*
X154555000Y-135889995D01*
X154555000Y-130620587D01*
X154847698Y-130328400D01*
X155059758Y-129817701D01*
X155060241Y-129264725D01*
X154849072Y-128753657D01*
X154458400Y-128362302D01*
X154236196Y-128270035D01*
X154456343Y-128179072D01*
X154847698Y-127788400D01*
X155059758Y-127277701D01*
X155060241Y-126724725D01*
X154849072Y-126213657D01*
X154555000Y-125919071D01*
X154555000Y-124280478D01*
X154853629Y-123982370D01*
X154939949Y-123774488D01*
X155024990Y-123980303D01*
X155417630Y-124373629D01*
X155930900Y-124586757D01*
X156486661Y-124587242D01*
X157000303Y-124375010D01*
X157393629Y-123982370D01*
X157407070Y-123950000D01*
X157552469Y-123950000D01*
X157564990Y-123980303D01*
X157957630Y-124373629D01*
X158470900Y-124586757D01*
X159026661Y-124587242D01*
X159540303Y-124375010D01*
X159933629Y-123982370D01*
X160019949Y-123774488D01*
X160104990Y-123980303D01*
X160405000Y-124280837D01*
X160405000Y-124459995D01*
X160404999Y-124460000D01*
X160430310Y-124587242D01*
X160472367Y-124798675D01*
X160664209Y-125085789D01*
X160664210Y-125085790D01*
X161934208Y-126355787D01*
X161934210Y-126355790D01*
X162221325Y-126547633D01*
X162560000Y-126615001D01*
X162560005Y-126615000D01*
X166003420Y-126615000D01*
X167014208Y-127625787D01*
X167014210Y-127625790D01*
X167260423Y-127790303D01*
X167301325Y-127817633D01*
X167640000Y-127885001D01*
X167640005Y-127885000D01*
X172899522Y-127885000D01*
X173197630Y-128183629D01*
X173405512Y-128269949D01*
X173199697Y-128354990D01*
X172806371Y-128747630D01*
X172593243Y-129260900D01*
X172592758Y-129816661D01*
X172804990Y-130330303D01*
X173197630Y-130723629D01*
X173405512Y-130809949D01*
X173199697Y-130894990D01*
X172806371Y-131287630D01*
X172593243Y-131800900D01*
X172592758Y-132356661D01*
X172804990Y-132870303D01*
X173197630Y-133263629D01*
X173405512Y-133349949D01*
X173199697Y-133434990D01*
X172806371Y-133827630D01*
X172593243Y-134340900D01*
X172592758Y-134896661D01*
X172804990Y-135410303D01*
X173197630Y-135803629D01*
X173405512Y-135889949D01*
X173199697Y-135974990D01*
X172806371Y-136367630D01*
X172593243Y-136880900D01*
X172592758Y-137436661D01*
X172804990Y-137950303D01*
X173197630Y-138343629D01*
X173405512Y-138429949D01*
X173199697Y-138514990D01*
X172899163Y-138815000D01*
X163830005Y-138815000D01*
X163830000Y-138814999D01*
X163547516Y-138871190D01*
X163491325Y-138882367D01*
X163204210Y-139074210D01*
X163204208Y-139074213D01*
X157104210Y-145174210D01*
X156912367Y-145461325D01*
X156912367Y-145461326D01*
X156844999Y-145800000D01*
X156845000Y-145800005D01*
X156845000Y-146673670D01*
X156715302Y-146760332D01*
X156460000Y-147142418D01*
X156204698Y-146760332D01*
X155739151Y-146449263D01*
X155190000Y-146340030D01*
X154640849Y-146449263D01*
X154175302Y-146760332D01*
X153922851Y-147138151D01*
X153574896Y-146705500D01*
X153081819Y-146435633D01*
X152999039Y-146418096D01*
X152777000Y-146540085D01*
X152777000Y-148033000D01*
X152797000Y-148033000D01*
X152797000Y-148287000D01*
X152777000Y-148287000D01*
X152777000Y-149779915D01*
X152999039Y-149901904D01*
X153081819Y-149884367D01*
X153574896Y-149614500D01*
X153922851Y-149181849D01*
X154175302Y-149559668D01*
X154305000Y-149646330D01*
X154305000Y-150109995D01*
X154304999Y-150110000D01*
X154346216Y-150317207D01*
X154372367Y-150448675D01*
X154409475Y-150504211D01*
X154564210Y-150735790D01*
X155584208Y-151755787D01*
X155584210Y-151755790D01*
X155871325Y-151947633D01*
X155927516Y-151958810D01*
X156210000Y-152015001D01*
X156210005Y-152015000D01*
X166792887Y-152015000D01*
X166650345Y-152157293D01*
X166243464Y-153137173D01*
X166242538Y-154198172D01*
X166647709Y-155178761D01*
X167397293Y-155929655D01*
X168377173Y-156336536D01*
X169438172Y-156337462D01*
X170418761Y-155932291D01*
X171169655Y-155182707D01*
X171576536Y-154202827D01*
X171577253Y-153380213D01*
X173189392Y-153380213D01*
X173258857Y-153622397D01*
X173782302Y-153809144D01*
X174337368Y-153781362D01*
X174721143Y-153622397D01*
X174790608Y-153380213D01*
X173990000Y-152579605D01*
X173189392Y-153380213D01*
X171577253Y-153380213D01*
X171577462Y-153141828D01*
X171185126Y-152192302D01*
X172580856Y-152192302D01*
X172608638Y-152747368D01*
X172767603Y-153131143D01*
X173009787Y-153200608D01*
X173810395Y-152400000D01*
X174169605Y-152400000D01*
X174970213Y-153200608D01*
X175212397Y-153131143D01*
X175399144Y-152607698D01*
X175371362Y-152052632D01*
X175212397Y-151668857D01*
X174970213Y-151599392D01*
X174169605Y-152400000D01*
X173810395Y-152400000D01*
X173009787Y-151599392D01*
X172767603Y-151668857D01*
X172580856Y-152192302D01*
X171185126Y-152192302D01*
X171172291Y-152161239D01*
X170422707Y-151410345D01*
X170040105Y-151251475D01*
X172992969Y-148298610D01*
X173197630Y-148503629D01*
X173405512Y-148589949D01*
X173199697Y-148674990D01*
X172806371Y-149067630D01*
X172593243Y-149580900D01*
X172592758Y-150136661D01*
X172804990Y-150650303D01*
X173197630Y-151043629D01*
X173389727Y-151123395D01*
X173258857Y-151177603D01*
X173189392Y-151419787D01*
X173990000Y-152220395D01*
X174790608Y-151419787D01*
X174721143Y-151177603D01*
X174580682Y-151127491D01*
X174780303Y-151045010D01*
X175173629Y-150652370D01*
X175386757Y-150139100D01*
X175387242Y-149583339D01*
X175175010Y-149069697D01*
X174782370Y-148676371D01*
X174574488Y-148590051D01*
X174780303Y-148505010D01*
X175173629Y-148112370D01*
X175386757Y-147599100D01*
X175387242Y-147043339D01*
X175175010Y-146529697D01*
X174782370Y-146136371D01*
X174574488Y-146050051D01*
X174780303Y-145965010D01*
X175173629Y-145572370D01*
X175386757Y-145059100D01*
X175387242Y-144503339D01*
X175175010Y-143989697D01*
X174782370Y-143596371D01*
X174574488Y-143510051D01*
X174780303Y-143425010D01*
X175173629Y-143032370D01*
X175386757Y-142519100D01*
X175387242Y-141963339D01*
X175175010Y-141449697D01*
X174782370Y-141056371D01*
X174574488Y-140970051D01*
X174780303Y-140885010D01*
X175173629Y-140492370D01*
X175386757Y-139979100D01*
X175387242Y-139423339D01*
X175175010Y-138909697D01*
X174782370Y-138516371D01*
X174574488Y-138430051D01*
X174780303Y-138345010D01*
X175173629Y-137952370D01*
X175386757Y-137439100D01*
X175387242Y-136883339D01*
X175175010Y-136369697D01*
X174782370Y-135976371D01*
X174574488Y-135890051D01*
X174780303Y-135805010D01*
X175173629Y-135412370D01*
X175386757Y-134899100D01*
X175387242Y-134343339D01*
X175175010Y-133829697D01*
X174782370Y-133436371D01*
X174574488Y-133350051D01*
X174780303Y-133265010D01*
X175173629Y-132872370D01*
X175386757Y-132359100D01*
X175387242Y-131803339D01*
X175175010Y-131289697D01*
X174782370Y-130896371D01*
X174574488Y-130810051D01*
X174780303Y-130725010D01*
X175173629Y-130332370D01*
X175386757Y-129819100D01*
X175387242Y-129263339D01*
X175175010Y-128749697D01*
X174782370Y-128356371D01*
X174574488Y-128270051D01*
X174780303Y-128185010D01*
X175173629Y-127792370D01*
X175386757Y-127279100D01*
X175387242Y-126723339D01*
X175175010Y-126209697D01*
X174782370Y-125816371D01*
X174574488Y-125730051D01*
X174780303Y-125645010D01*
X175173629Y-125252370D01*
X175386757Y-124739100D01*
X175387242Y-124183339D01*
X175175010Y-123669697D01*
X174782370Y-123276371D01*
X174574488Y-123190051D01*
X174780303Y-123105010D01*
X175173629Y-122712370D01*
X175386757Y-122199100D01*
X175387242Y-121643339D01*
X175175010Y-121129697D01*
X174782370Y-120736371D01*
X174574488Y-120650051D01*
X174780303Y-120565010D01*
X175173629Y-120172370D01*
X175386757Y-119659100D01*
X175387242Y-119103339D01*
X175175010Y-118589697D01*
X174782370Y-118196371D01*
X174574488Y-118110051D01*
X174780303Y-118025010D01*
X175173629Y-117632370D01*
X175386757Y-117119100D01*
X175387242Y-116563339D01*
X175175010Y-116049697D01*
X174782370Y-115656371D01*
X174574488Y-115570051D01*
X174780303Y-115485010D01*
X175173629Y-115092370D01*
X175386757Y-114579100D01*
X175387242Y-114023339D01*
X175175010Y-113509697D01*
X174782370Y-113116371D01*
X174574488Y-113030051D01*
X174780303Y-112945010D01*
X175080837Y-112645000D01*
X179069995Y-112645000D01*
X179070000Y-112645001D01*
X179352484Y-112588810D01*
X179408675Y-112577633D01*
X179695790Y-112385790D01*
X187098834Y-104982745D01*
X187218943Y-104933117D01*
X187482192Y-104670327D01*
X187624838Y-104326799D01*
X187625162Y-103954833D01*
X187483117Y-103611057D01*
X187220327Y-103347808D01*
X186876799Y-103205162D01*
X186504833Y-103204838D01*
X186161057Y-103346883D01*
X185897808Y-103609673D01*
X185847434Y-103730987D01*
X184966405Y-104612016D01*
X185084838Y-104326799D01*
X185085162Y-103954833D01*
X184943117Y-103611057D01*
X184680327Y-103347808D01*
X184336799Y-103205162D01*
X183964833Y-103204838D01*
X183621057Y-103346883D01*
X183357808Y-103609673D01*
X183307434Y-103730987D01*
X178703420Y-108335000D01*
X175080478Y-108335000D01*
X174782370Y-108036371D01*
X174574488Y-107950051D01*
X174780303Y-107865010D01*
X175173629Y-107472370D01*
X175386757Y-106959100D01*
X175387242Y-106403339D01*
X175175010Y-105889697D01*
X174782370Y-105496371D01*
X174269100Y-105283243D01*
X173713339Y-105282758D01*
X173199697Y-105494990D01*
X172806371Y-105887630D01*
X172593243Y-106400900D01*
X172592758Y-106956661D01*
X172804990Y-107470303D01*
X173197630Y-107863629D01*
X173405512Y-107949949D01*
X173199697Y-108034990D01*
X172806371Y-108427630D01*
X172593243Y-108940900D01*
X172592758Y-109496661D01*
X172804990Y-110010303D01*
X173197630Y-110403629D01*
X173405512Y-110489949D01*
X173199697Y-110574990D01*
X172806371Y-110967630D01*
X172593243Y-111480900D01*
X172592758Y-112036661D01*
X172804990Y-112550303D01*
X173197630Y-112943629D01*
X173405512Y-113029949D01*
X173199697Y-113114990D01*
X172806371Y-113507630D01*
X172593243Y-114020900D01*
X172592758Y-114576661D01*
X172804990Y-115090303D01*
X173197630Y-115483629D01*
X173405512Y-115569949D01*
X173199697Y-115654990D01*
X172899163Y-115955000D01*
X171450000Y-115955000D01*
X171111325Y-116022367D01*
X170824210Y-116214210D01*
X170824208Y-116214213D01*
X168543420Y-118495000D01*
X139700005Y-118495000D01*
X139700000Y-118494999D01*
X139361325Y-118562367D01*
X139074210Y-118754210D01*
X139074208Y-118754213D01*
X137804210Y-120024210D01*
X137612367Y-120311325D01*
X137612367Y-120311326D01*
X137544999Y-120650000D01*
X137545000Y-120650005D01*
X137545000Y-122099522D01*
X137246371Y-122397630D01*
X137160051Y-122605512D01*
X137075010Y-122399697D01*
X136682370Y-122006371D01*
X136169100Y-121793243D01*
X135613339Y-121792758D01*
X135099697Y-122004990D01*
X134706371Y-122397630D01*
X134692930Y-122430000D01*
X134547531Y-122430000D01*
X134535010Y-122399697D01*
X134142370Y-122006371D01*
X133629100Y-121793243D01*
X133073339Y-121792758D01*
X132559697Y-122004990D01*
X132166371Y-122397630D01*
X132080051Y-122605512D01*
X131995010Y-122399697D01*
X131602370Y-122006371D01*
X131089100Y-121793243D01*
X130533339Y-121792758D01*
X130019697Y-122004990D01*
X129626371Y-122397630D01*
X129540051Y-122605512D01*
X129455010Y-122399697D01*
X129062370Y-122006371D01*
X128549100Y-121793243D01*
X127993339Y-121792758D01*
X127479697Y-122004990D01*
X127086371Y-122397630D01*
X127000051Y-122605512D01*
X126915010Y-122399697D01*
X126522370Y-122006371D01*
X126009100Y-121793243D01*
X125453339Y-121792758D01*
X124939697Y-122004990D01*
X124586237Y-122357833D01*
X124555162Y-122192683D01*
X124416090Y-121976559D01*
X124203890Y-121831569D01*
X123952000Y-121780560D01*
X122428000Y-121780560D01*
X122192683Y-121824838D01*
X121976559Y-121963910D01*
X121831569Y-122176110D01*
X121780560Y-122428000D01*
X120265000Y-122428000D01*
X120265000Y-117682532D01*
X123487073Y-117682532D01*
X123585736Y-117949387D01*
X124195461Y-118175908D01*
X124845460Y-118151856D01*
X125334264Y-117949387D01*
X125432927Y-117682532D01*
X146347073Y-117682532D01*
X146445736Y-117949387D01*
X147055461Y-118175908D01*
X147705460Y-118151856D01*
X148194264Y-117949387D01*
X148292927Y-117682532D01*
X147320000Y-116709605D01*
X146347073Y-117682532D01*
X125432927Y-117682532D01*
X124460000Y-116709605D01*
X123487073Y-117682532D01*
X120265000Y-117682532D01*
X120265000Y-117206580D01*
X121206118Y-116265461D01*
X122814092Y-116265461D01*
X122838144Y-116915460D01*
X123040613Y-117404264D01*
X123307468Y-117502927D01*
X124280395Y-116530000D01*
X124639605Y-116530000D01*
X125612532Y-117502927D01*
X125879387Y-117404264D01*
X126105908Y-116794539D01*
X126086331Y-116265461D01*
X145674092Y-116265461D01*
X145698144Y-116915460D01*
X145900613Y-117404264D01*
X146167468Y-117502927D01*
X147140395Y-116530000D01*
X147499605Y-116530000D01*
X148472532Y-117502927D01*
X148739387Y-117404264D01*
X148965908Y-116794539D01*
X148941856Y-116144540D01*
X148739387Y-115655736D01*
X148472532Y-115557073D01*
X147499605Y-116530000D01*
X147140395Y-116530000D01*
X146167468Y-115557073D01*
X145900613Y-115655736D01*
X145674092Y-116265461D01*
X126086331Y-116265461D01*
X126081856Y-116144540D01*
X125879387Y-115655736D01*
X125612532Y-115557073D01*
X124639605Y-116530000D01*
X124280395Y-116530000D01*
X123307468Y-115557073D01*
X123040613Y-115655736D01*
X122814092Y-116265461D01*
X121206118Y-116265461D01*
X122286579Y-115185000D01*
X123558233Y-115185000D01*
X123487073Y-115377468D01*
X124460000Y-116350395D01*
X125432927Y-115377468D01*
X125361767Y-115185000D01*
X146418233Y-115185000D01*
X146347073Y-115377468D01*
X147320000Y-116350395D01*
X148292927Y-115377468D01*
X148194264Y-115110613D01*
X147856810Y-114985244D01*
X147945790Y-114925790D01*
X148111731Y-114677440D01*
X148320000Y-114677440D01*
X148555317Y-114633162D01*
X148771441Y-114494090D01*
X148916431Y-114281890D01*
X148967440Y-114030000D01*
X148967440Y-112030000D01*
X148937574Y-111871277D01*
X149321143Y-111712397D01*
X149390608Y-111470213D01*
X148590000Y-110669605D01*
X148575858Y-110683748D01*
X148396253Y-110504143D01*
X148410395Y-110490000D01*
X147609787Y-109689392D01*
X147367603Y-109758857D01*
X147317491Y-109899318D01*
X147235010Y-109699697D01*
X147045432Y-109509787D01*
X147789392Y-109509787D01*
X148590000Y-110310395D01*
X149390608Y-109509787D01*
X149321143Y-109267603D01*
X148797698Y-109080856D01*
X148242632Y-109108638D01*
X147858857Y-109267603D01*
X147789392Y-109509787D01*
X147045432Y-109509787D01*
X146842370Y-109306371D01*
X146329100Y-109093243D01*
X145773339Y-109092758D01*
X145259697Y-109304990D01*
X144866371Y-109697630D01*
X144653243Y-110210900D01*
X144652758Y-110766661D01*
X144864990Y-111280303D01*
X145165000Y-111580837D01*
X145165000Y-113029995D01*
X145164999Y-113030000D01*
X145221190Y-113312484D01*
X145232367Y-113368675D01*
X145263320Y-113415000D01*
X126107440Y-113415000D01*
X126107440Y-112030000D01*
X126077574Y-111871277D01*
X126461143Y-111712397D01*
X126530608Y-111470213D01*
X125730000Y-110669605D01*
X125715858Y-110683748D01*
X125536253Y-110504143D01*
X125550395Y-110490000D01*
X124749787Y-109689392D01*
X124507603Y-109758857D01*
X124457491Y-109899318D01*
X124375010Y-109699697D01*
X124185432Y-109509787D01*
X124929392Y-109509787D01*
X125730000Y-110310395D01*
X126530608Y-109509787D01*
X126461143Y-109267603D01*
X125937698Y-109080856D01*
X125382632Y-109108638D01*
X124998857Y-109267603D01*
X124929392Y-109509787D01*
X124185432Y-109509787D01*
X123982370Y-109306371D01*
X123469100Y-109093243D01*
X122913339Y-109092758D01*
X122399697Y-109304990D01*
X122006371Y-109697630D01*
X121793243Y-110210900D01*
X121792758Y-110766661D01*
X122004990Y-111280303D01*
X122305000Y-111580837D01*
X122305000Y-113029995D01*
X122304999Y-113030000D01*
X122361190Y-113312484D01*
X122372367Y-113368675D01*
X122403320Y-113415000D01*
X121920000Y-113415000D01*
X121581325Y-113482367D01*
X121294210Y-113674210D01*
X121294208Y-113674213D01*
X118754210Y-116214210D01*
X118562367Y-116501325D01*
X118562367Y-116501326D01*
X118494999Y-116840000D01*
X118495000Y-116840005D01*
X118495000Y-131713421D01*
X117484210Y-132724210D01*
X117292367Y-133011325D01*
X117292367Y-133011326D01*
X117224999Y-133350000D01*
X117225000Y-133350005D01*
X117225000Y-134619995D01*
X117224999Y-134620000D01*
X117262167Y-134806852D01*
X117292367Y-134958675D01*
X117427978Y-135161632D01*
X117484210Y-135245790D01*
X118001324Y-135762904D01*
X117581828Y-135762538D01*
X116601239Y-136167709D01*
X115850345Y-136917293D01*
X115443464Y-137897173D01*
X115442538Y-138958172D01*
X115010000Y-138958172D01*
X115010000Y-111018172D01*
X115442538Y-111018172D01*
X115847709Y-111998761D01*
X116597293Y-112749655D01*
X117577173Y-113156536D01*
X118638172Y-113157462D01*
X119618761Y-112752291D01*
X120369655Y-112002707D01*
X120776536Y-111022827D01*
X120777462Y-109961828D01*
X120372291Y-108981239D01*
X119622707Y-108230345D01*
X118642827Y-107823464D01*
X117581828Y-107822538D01*
X116601239Y-108227709D01*
X115850345Y-108977293D01*
X115443464Y-109957173D01*
X115442538Y-111018172D01*
X115010000Y-111018172D01*
X115010000Y-92150000D01*
X205030000Y-92150000D01*
X205030000Y-161850000D01*
X205030000Y-161850000D01*
G37*
X205030000Y-161850000D02*
X115010000Y-161850000D01*
X115010000Y-152527000D01*
X121800000Y-152527000D01*
X121800000Y-153277000D01*
X121954408Y-153799263D01*
X122296924Y-154222681D01*
X122775403Y-154482793D01*
X122848029Y-154497277D01*
X123063000Y-154374683D01*
X123063000Y-152527000D01*
X121800000Y-152527000D01*
X115010000Y-152527000D01*
X115010000Y-151523000D01*
X121800000Y-151523000D01*
X121800000Y-152273000D01*
X123063000Y-152273000D01*
X123063000Y-150425317D01*
X122848029Y-150302723D01*
X122775403Y-150317207D01*
X122296924Y-150577319D01*
X121954408Y-151000737D01*
X121800000Y-151523000D01*
X115010000Y-151523000D01*
X115010000Y-138958172D01*
X115442538Y-138958172D01*
X115847709Y-139938761D01*
X116597293Y-140689655D01*
X117577173Y-141096536D01*
X118638172Y-141097462D01*
X119618761Y-140692291D01*
X120369655Y-139942707D01*
X120736012Y-139060420D01*
X120787582Y-139185229D01*
X121035000Y-139433079D01*
X121035000Y-142032054D01*
X120659179Y-142283170D01*
X120283078Y-142846044D01*
X120151009Y-143510000D01*
X120283078Y-144173956D01*
X120659179Y-144736830D01*
X121222053Y-145112931D01*
X121886009Y-145245000D01*
X121953991Y-145245000D01*
X122617947Y-145112931D01*
X123180821Y-144736830D01*
X123556922Y-144173956D01*
X123688991Y-143510000D01*
X123556922Y-142846044D01*
X123180821Y-142283170D01*
X122805000Y-142032054D01*
X122805000Y-139432873D01*
X123051098Y-139187204D01*
X123254768Y-138696713D01*
X123255231Y-138165617D01*
X123052418Y-137674771D01*
X122677204Y-137298902D01*
X122186713Y-137095232D01*
X121836506Y-137094927D01*
X120296855Y-135555275D01*
X121164331Y-135555275D01*
X121226169Y-135791042D01*
X121727122Y-135967419D01*
X122257440Y-135938664D01*
X122613831Y-135791042D01*
X122675669Y-135555275D01*
X121920000Y-134799605D01*
X121164331Y-135555275D01*
X120296855Y-135555275D01*
X119168702Y-134427122D01*
X120572581Y-134427122D01*
X120601336Y-134957440D01*
X120748958Y-135313831D01*
X120984725Y-135375669D01*
X121740395Y-134620000D01*
X122099605Y-134620000D01*
X122855275Y-135375669D01*
X123091042Y-135313831D01*
X123267419Y-134812878D01*
X123238664Y-134282560D01*
X123091042Y-133926169D01*
X122855275Y-133864331D01*
X122099605Y-134620000D01*
X121740395Y-134620000D01*
X120984725Y-133864331D01*
X120748958Y-133926169D01*
X120572581Y-134427122D01*
X119168702Y-134427122D01*
X118995000Y-134253420D01*
X118995000Y-133716580D01*
X119026854Y-133684725D01*
X121164331Y-133684725D01*
X121920000Y-134440395D01*
X122675669Y-133684725D01*
X122613831Y-133448958D01*
X122112878Y-133272581D01*
X121582560Y-133301336D01*
X121226169Y-133448958D01*
X121164331Y-133684725D01*
X119026854Y-133684725D01*
X119746579Y-132965000D01*
X129173420Y-132965000D01*
X130563350Y-134354929D01*
X130467569Y-134495110D01*
X130416560Y-134747000D01*
X130416560Y-136271000D01*
X130460838Y-136506317D01*
X130599910Y-136722441D01*
X130812110Y-136867431D01*
X131064000Y-136918440D01*
X132588000Y-136918440D01*
X132823317Y-136874162D01*
X133039441Y-136735090D01*
X133184431Y-136522890D01*
X133221492Y-136339876D01*
X133573630Y-136692629D01*
X134086900Y-136905757D01*
X134642661Y-136906242D01*
X135156303Y-136694010D01*
X135549629Y-136301370D01*
X135759995Y-135794750D01*
X141097000Y-135794750D01*
X141097000Y-136397309D01*
X141193673Y-136630698D01*
X141372301Y-136809327D01*
X141605690Y-136906000D01*
X142208250Y-136906000D01*
X142367000Y-136747250D01*
X142367000Y-135636000D01*
X141255750Y-135636000D01*
X141097000Y-135794750D01*
X135759995Y-135794750D01*
X135762757Y-135788100D01*
X135763242Y-135232339D01*
X135551010Y-134718697D01*
X135453175Y-134620691D01*
X141097000Y-134620691D01*
X141097000Y-135223250D01*
X141255750Y-135382000D01*
X142367000Y-135382000D01*
X142367000Y-134270750D01*
X142621000Y-134270750D01*
X142621000Y-135382000D01*
X142641000Y-135382000D01*
X142641000Y-135636000D01*
X142621000Y-135636000D01*
X142621000Y-136747250D01*
X142779750Y-136906000D01*
X143382310Y-136906000D01*
X143615699Y-136809327D01*
X143794327Y-136630698D01*
X143852932Y-136489213D01*
X144233392Y-136489213D01*
X144302857Y-136731397D01*
X144826302Y-136918144D01*
X145381368Y-136890362D01*
X145765143Y-136731397D01*
X145834608Y-136489213D01*
X145034000Y-135688605D01*
X144233392Y-136489213D01*
X143852932Y-136489213D01*
X143891000Y-136397309D01*
X143891000Y-136262916D01*
X144053787Y-136309608D01*
X144854395Y-135509000D01*
X145213605Y-135509000D01*
X146014213Y-136309608D01*
X146256397Y-136240143D01*
X146443144Y-135716698D01*
X146415362Y-135161632D01*
X146256397Y-134777857D01*
X146014213Y-134708392D01*
X145213605Y-135509000D01*
X144854395Y-135509000D01*
X144053787Y-134708392D01*
X143891000Y-134755084D01*
X143891000Y-134620691D01*
X143852933Y-134528787D01*
X144233392Y-134528787D01*
X145034000Y-135329395D01*
X145834608Y-134528787D01*
X145765143Y-134286603D01*
X145241698Y-134099856D01*
X144686632Y-134127638D01*
X144302857Y-134286603D01*
X144233392Y-134528787D01*
X143852933Y-134528787D01*
X143794327Y-134387302D01*
X143615699Y-134208673D01*
X143382310Y-134112000D01*
X142779750Y-134112000D01*
X142621000Y-134270750D01*
X142367000Y-134270750D01*
X142208250Y-134112000D01*
X141605690Y-134112000D01*
X141372301Y-134208673D01*
X141193673Y-134387302D01*
X141097000Y-134620691D01*
X135453175Y-134620691D01*
X135158370Y-134325371D01*
X134645100Y-134112243D01*
X134089339Y-134111758D01*
X133575697Y-134323990D01*
X133222237Y-134676833D01*
X133191162Y-134511683D01*
X133052090Y-134295559D01*
X132839890Y-134150569D01*
X132660940Y-134114331D01*
X132643633Y-134027325D01*
X132621506Y-133994210D01*
X132451790Y-133740210D01*
X132451787Y-133740208D01*
X130165790Y-131454210D01*
X129919577Y-131289697D01*
X129878675Y-131262367D01*
X129822484Y-131251190D01*
X129540000Y-131194999D01*
X129539995Y-131195000D01*
X120265000Y-131195000D01*
X120265000Y-122428000D01*
X121780560Y-122428000D01*
X121780560Y-123952000D01*
X121824838Y-124187317D01*
X121963910Y-124403441D01*
X122176110Y-124548431D01*
X122428000Y-124599440D01*
X123952000Y-124599440D01*
X124187317Y-124555162D01*
X124403441Y-124416090D01*
X124548431Y-124203890D01*
X124585492Y-124020876D01*
X124845000Y-124280837D01*
X124845000Y-125919413D01*
X124552302Y-126211600D01*
X124340242Y-126722299D01*
X124339759Y-127275275D01*
X124550928Y-127786343D01*
X124941600Y-128177698D01*
X125163804Y-128269965D01*
X124943657Y-128360928D01*
X124552302Y-128751600D01*
X124340242Y-129262299D01*
X124339759Y-129815275D01*
X124550928Y-130326343D01*
X124941600Y-130717698D01*
X125452299Y-130929758D01*
X126005275Y-130930241D01*
X126516343Y-130719072D01*
X126810929Y-130425000D01*
X127189413Y-130425000D01*
X127481600Y-130717698D01*
X127992299Y-130929758D01*
X128545275Y-130930241D01*
X129056343Y-130719072D01*
X129350929Y-130425000D01*
X129729413Y-130425000D01*
X130021600Y-130717698D01*
X130532299Y-130929758D01*
X131085275Y-130930241D01*
X131596343Y-130719072D01*
X131890929Y-130425000D01*
X147509413Y-130425000D01*
X147801600Y-130717698D01*
X148312299Y-130929758D01*
X148865275Y-130930241D01*
X149376343Y-130719072D01*
X149670929Y-130425000D01*
X150049413Y-130425000D01*
X150341600Y-130717698D01*
X150852299Y-130929758D01*
X151405275Y-130930241D01*
X151916343Y-130719072D01*
X152210929Y-130425000D01*
X152589413Y-130425000D01*
X152785000Y-130620929D01*
X152785000Y-135523421D01*
X149484210Y-138824210D01*
X149292367Y-139111325D01*
X149292367Y-139111326D01*
X149224999Y-139450000D01*
X149225000Y-139450005D01*
X149225000Y-146378554D01*
X149074683Y-146406838D01*
X148858559Y-146545910D01*
X148713569Y-146758110D01*
X148662560Y-147010000D01*
X148662560Y-149310000D01*
X148706838Y-149545317D01*
X148845910Y-149761441D01*
X149058110Y-149906431D01*
X149225000Y-149940227D01*
X149225000Y-154323421D01*
X146953420Y-156595000D01*
X136256579Y-156595000D01*
X135505000Y-155843420D01*
X135505000Y-154887921D01*
X135549629Y-154843370D01*
X135759995Y-154336750D01*
X141097000Y-154336750D01*
X141097000Y-154939309D01*
X141193673Y-155172698D01*
X141372301Y-155351327D01*
X141605690Y-155448000D01*
X142208250Y-155448000D01*
X142367000Y-155289250D01*
X142367000Y-154178000D01*
X141255750Y-154178000D01*
X141097000Y-154336750D01*
X135759995Y-154336750D01*
X135762757Y-154330100D01*
X135763242Y-153774339D01*
X135551010Y-153260697D01*
X135453175Y-153162691D01*
X141097000Y-153162691D01*
X141097000Y-153765250D01*
X141255750Y-153924000D01*
X142367000Y-153924000D01*
X142367000Y-152812750D01*
X142621000Y-152812750D01*
X142621000Y-153924000D01*
X142641000Y-153924000D01*
X142641000Y-154178000D01*
X142621000Y-154178000D01*
X142621000Y-155289250D01*
X142779750Y-155448000D01*
X143382310Y-155448000D01*
X143615699Y-155351327D01*
X143794327Y-155172698D01*
X143852932Y-155031213D01*
X144233392Y-155031213D01*
X144302857Y-155273397D01*
X144826302Y-155460144D01*
X145381368Y-155432362D01*
X145765143Y-155273397D01*
X145834608Y-155031213D01*
X145034000Y-154230605D01*
X144233392Y-155031213D01*
X143852932Y-155031213D01*
X143891000Y-154939309D01*
X143891000Y-154804916D01*
X144053787Y-154851608D01*
X144854395Y-154051000D01*
X145213605Y-154051000D01*
X146014213Y-154851608D01*
X146256397Y-154782143D01*
X146443144Y-154258698D01*
X146415362Y-153703632D01*
X146256397Y-153319857D01*
X146014213Y-153250392D01*
X145213605Y-154051000D01*
X144854395Y-154051000D01*
X144053787Y-153250392D01*
X143891000Y-153297084D01*
X143891000Y-153162691D01*
X143852933Y-153070787D01*
X144233392Y-153070787D01*
X145034000Y-153871395D01*
X145834608Y-153070787D01*
X145765143Y-152828603D01*
X145241698Y-152641856D01*
X144686632Y-152669638D01*
X144302857Y-152828603D01*
X144233392Y-153070787D01*
X143852933Y-153070787D01*
X143794327Y-152929302D01*
X143615699Y-152750673D01*
X143382310Y-152654000D01*
X142779750Y-152654000D01*
X142621000Y-152812750D01*
X142367000Y-152812750D01*
X142208250Y-152654000D01*
X141605690Y-152654000D01*
X141372301Y-152750673D01*
X141193673Y-152929302D01*
X141097000Y-153162691D01*
X135453175Y-153162691D01*
X135158370Y-152867371D01*
X134645100Y-152654243D01*
X134089339Y-152653758D01*
X133575697Y-152865990D01*
X133275163Y-153166000D01*
X133212296Y-153166000D01*
X133191162Y-153053683D01*
X133052090Y-152837559D01*
X132839890Y-152692569D01*
X132588000Y-152641560D01*
X131064000Y-152641560D01*
X130828683Y-152685838D01*
X130612559Y-152824910D01*
X130467569Y-153037110D01*
X130425000Y-153247322D01*
X130425000Y-137160000D01*
X130357633Y-136821325D01*
X130165790Y-136534210D01*
X130165787Y-136534208D01*
X128342974Y-134711395D01*
X128361154Y-134620000D01*
X128259533Y-134109118D01*
X127970142Y-133676012D01*
X127537036Y-133386621D01*
X127026154Y-133285000D01*
X126973846Y-133285000D01*
X126462964Y-133386621D01*
X126029858Y-133676012D01*
X125740467Y-134109118D01*
X125638846Y-134620000D01*
X125740467Y-135130882D01*
X126029858Y-135563988D01*
X126115000Y-135620878D01*
X126115000Y-137429122D01*
X126029858Y-137486012D01*
X125740467Y-137919118D01*
X125638846Y-138430000D01*
X125740467Y-138940882D01*
X126029858Y-139373988D01*
X126462964Y-139663379D01*
X126973846Y-139765000D01*
X127026154Y-139765000D01*
X127537036Y-139663379D01*
X127970142Y-139373988D01*
X128259533Y-138940882D01*
X128361154Y-138430000D01*
X128259533Y-137919118D01*
X127970142Y-137486012D01*
X127885000Y-137429122D01*
X127885000Y-136756579D01*
X128655000Y-137526579D01*
X128655000Y-142099837D01*
X128564090Y-141958559D01*
X128351890Y-141813569D01*
X128100000Y-141762560D01*
X125900000Y-141762560D01*
X125664683Y-141806838D01*
X125448559Y-141945910D01*
X125303569Y-142158110D01*
X125252560Y-142410000D01*
X125252560Y-144610000D01*
X125296838Y-144845317D01*
X125435910Y-145061441D01*
X125648110Y-145206431D01*
X125900000Y-145257440D01*
X126115000Y-145257440D01*
X126115000Y-148223421D01*
X125104210Y-149234210D01*
X124912367Y-149521325D01*
X124912367Y-149521326D01*
X124844999Y-149860000D01*
X124845000Y-149860005D01*
X124845000Y-150559797D01*
X124747122Y-150625197D01*
X124447249Y-151073987D01*
X124425592Y-151000737D01*
X124083076Y-150577319D01*
X123604597Y-150317207D01*
X123531971Y-150302723D01*
X123317000Y-150425317D01*
X123317000Y-152273000D01*
X123337000Y-152273000D01*
X123337000Y-152527000D01*
X123317000Y-152527000D01*
X123317000Y-154374683D01*
X123531971Y-154497277D01*
X123604597Y-154482793D01*
X124083076Y-154222681D01*
X124425592Y-153799263D01*
X124447249Y-153726013D01*
X124747122Y-154174803D01*
X125198070Y-154476118D01*
X125730000Y-154581925D01*
X126261930Y-154476118D01*
X126712878Y-154174803D01*
X127014193Y-153723855D01*
X127120000Y-153191925D01*
X127120000Y-151608075D01*
X127014193Y-151076145D01*
X126712878Y-150625197D01*
X126615000Y-150559797D01*
X126615000Y-150226580D01*
X127625787Y-149215792D01*
X127625790Y-149215790D01*
X127817633Y-148928675D01*
X127859690Y-148717242D01*
X127885001Y-148590000D01*
X127885000Y-148589995D01*
X127885000Y-145257440D01*
X128100000Y-145257440D01*
X128335317Y-145213162D01*
X128551441Y-145074090D01*
X128655000Y-144922526D01*
X128655000Y-157479995D01*
X128654999Y-157480000D01*
X128711190Y-157762484D01*
X128722367Y-157818675D01*
X128855151Y-158017401D01*
X128914210Y-158105790D01*
X131454208Y-160645787D01*
X131454210Y-160645790D01*
X131741325Y-160837633D01*
X132080000Y-160905000D01*
X186689995Y-160905000D01*
X186690000Y-160905001D01*
X186972484Y-160848810D01*
X187028675Y-160837633D01*
X187315790Y-160645790D01*
X187315791Y-160645789D01*
X194935787Y-153025792D01*
X194935790Y-153025790D01*
X195127633Y-152738675D01*
X195195000Y-152400000D01*
X195195000Y-140066580D01*
X197216579Y-138045000D01*
X200839522Y-138045000D01*
X201137630Y-138343629D01*
X201345512Y-138429949D01*
X201139697Y-138514990D01*
X200746371Y-138907630D01*
X200533243Y-139420900D01*
X200532758Y-139976661D01*
X200744990Y-140490303D01*
X201137630Y-140883629D01*
X201345512Y-140969949D01*
X201139697Y-141054990D01*
X200746371Y-141447630D01*
X200533243Y-141960900D01*
X200532758Y-142516661D01*
X200744990Y-143030303D01*
X201137630Y-143423629D01*
X201345512Y-143509949D01*
X201139697Y-143594990D01*
X200746371Y-143987630D01*
X200533243Y-144500900D01*
X200532758Y-145056661D01*
X200744990Y-145570303D01*
X201137630Y-145963629D01*
X201345512Y-146049949D01*
X201139697Y-146134990D01*
X200746371Y-146527630D01*
X200533243Y-147040900D01*
X200532758Y-147596661D01*
X200744990Y-148110303D01*
X201137630Y-148503629D01*
X201345512Y-148589949D01*
X201139697Y-148674990D01*
X200746371Y-149067630D01*
X200533243Y-149580900D01*
X200532758Y-150136661D01*
X200744990Y-150650303D01*
X201137630Y-151043629D01*
X201345512Y-151129949D01*
X201139697Y-151214990D01*
X200746371Y-151607630D01*
X200533243Y-152120900D01*
X200532758Y-152676661D01*
X200744990Y-153190303D01*
X201137630Y-153583629D01*
X201650900Y-153796757D01*
X202206661Y-153797242D01*
X202720303Y-153585010D01*
X203113629Y-153192370D01*
X203326757Y-152679100D01*
X203327242Y-152123339D01*
X203115010Y-151609697D01*
X202722370Y-151216371D01*
X202514488Y-151130051D01*
X202720303Y-151045010D01*
X203113629Y-150652370D01*
X203326757Y-150139100D01*
X203327242Y-149583339D01*
X203115010Y-149069697D01*
X202722370Y-148676371D01*
X202514488Y-148590051D01*
X202720303Y-148505010D01*
X203113629Y-148112370D01*
X203326757Y-147599100D01*
X203327242Y-147043339D01*
X203115010Y-146529697D01*
X202722370Y-146136371D01*
X202514488Y-146050051D01*
X202720303Y-145965010D01*
X203113629Y-145572370D01*
X203326757Y-145059100D01*
X203327242Y-144503339D01*
X203115010Y-143989697D01*
X202722370Y-143596371D01*
X202514488Y-143510051D01*
X202720303Y-143425010D01*
X203113629Y-143032370D01*
X203326757Y-142519100D01*
X203327242Y-141963339D01*
X203115010Y-141449697D01*
X202722370Y-141056371D01*
X202514488Y-140970051D01*
X202720303Y-140885010D01*
X203113629Y-140492370D01*
X203326757Y-139979100D01*
X203327242Y-139423339D01*
X203115010Y-138909697D01*
X202722370Y-138516371D01*
X202514488Y-138430051D01*
X202720303Y-138345010D01*
X203113629Y-137952370D01*
X203326757Y-137439100D01*
X203327242Y-136883339D01*
X203115010Y-136369697D01*
X202722370Y-135976371D01*
X202514488Y-135890051D01*
X202720303Y-135805010D01*
X203113629Y-135412370D01*
X203326757Y-134899100D01*
X203327242Y-134343339D01*
X203115010Y-133829697D01*
X202722370Y-133436371D01*
X202514488Y-133350051D01*
X202720303Y-133265010D01*
X203113629Y-132872370D01*
X203326757Y-132359100D01*
X203327242Y-131803339D01*
X203115010Y-131289697D01*
X202722370Y-130896371D01*
X202514488Y-130810051D01*
X202720303Y-130725010D01*
X203113629Y-130332370D01*
X203326757Y-129819100D01*
X203327242Y-129263339D01*
X203115010Y-128749697D01*
X202722370Y-128356371D01*
X202514488Y-128270051D01*
X202720303Y-128185010D01*
X203113629Y-127792370D01*
X203326757Y-127279100D01*
X203327242Y-126723339D01*
X203115010Y-126209697D01*
X202722370Y-125816371D01*
X202514488Y-125730051D01*
X202720303Y-125645010D01*
X203113629Y-125252370D01*
X203326757Y-124739100D01*
X203327242Y-124183339D01*
X203115010Y-123669697D01*
X202722370Y-123276371D01*
X202514488Y-123190051D01*
X202720303Y-123105010D01*
X203113629Y-122712370D01*
X203326757Y-122199100D01*
X203327242Y-121643339D01*
X203115010Y-121129697D01*
X202722370Y-120736371D01*
X202530273Y-120656605D01*
X202661143Y-120602397D01*
X202730608Y-120360213D01*
X201930000Y-119559605D01*
X201129392Y-120360213D01*
X201198857Y-120602397D01*
X201339318Y-120652509D01*
X201139697Y-120734990D01*
X200746371Y-121127630D01*
X200533243Y-121640900D01*
X200532758Y-122196661D01*
X200744990Y-122710303D01*
X201137630Y-123103629D01*
X201345512Y-123189949D01*
X201139697Y-123274990D01*
X200746371Y-123667630D01*
X200533243Y-124180900D01*
X200532758Y-124736661D01*
X200744990Y-125250303D01*
X201137630Y-125643629D01*
X201345512Y-125729949D01*
X201139697Y-125814990D01*
X200746371Y-126207630D01*
X200533243Y-126720900D01*
X200532758Y-127276661D01*
X200744990Y-127790303D01*
X201137630Y-128183629D01*
X201345512Y-128269949D01*
X201139697Y-128354990D01*
X200746371Y-128747630D01*
X200533243Y-129260900D01*
X200532758Y-129816661D01*
X200744990Y-130330303D01*
X201137630Y-130723629D01*
X201345512Y-130809949D01*
X201139697Y-130894990D01*
X200746371Y-131287630D01*
X200533243Y-131800900D01*
X200532758Y-132356661D01*
X200744990Y-132870303D01*
X201137630Y-133263629D01*
X201345512Y-133349949D01*
X201139697Y-133434990D01*
X200746371Y-133827630D01*
X200533243Y-134340900D01*
X200532758Y-134896661D01*
X200744990Y-135410303D01*
X201137630Y-135803629D01*
X201345512Y-135889949D01*
X201139697Y-135974990D01*
X200839163Y-136275000D01*
X196850000Y-136275000D01*
X196511325Y-136342367D01*
X196224210Y-136534210D01*
X196224208Y-136534213D01*
X193684210Y-139074210D01*
X193492367Y-139361325D01*
X193492367Y-139361326D01*
X193424999Y-139700000D01*
X193425000Y-139700005D01*
X193425000Y-152033421D01*
X186323420Y-159135000D01*
X132446579Y-159135000D01*
X130425000Y-157113420D01*
X130425000Y-154857855D01*
X130460838Y-155048317D01*
X130599910Y-155264441D01*
X130812110Y-155409431D01*
X131064000Y-155460440D01*
X132588000Y-155460440D01*
X132823317Y-155416162D01*
X133039441Y-155277090D01*
X133184431Y-155064890D01*
X133210532Y-154936000D01*
X133275522Y-154936000D01*
X133573630Y-155234629D01*
X133606000Y-155248070D01*
X133606000Y-155956000D01*
X133663852Y-156246839D01*
X133775592Y-156414070D01*
X133791190Y-156492484D01*
X133802367Y-156548675D01*
X133916842Y-156720000D01*
X133994210Y-156835790D01*
X135264208Y-158105787D01*
X135264210Y-158105790D01*
X135465071Y-158240000D01*
X135551325Y-158297633D01*
X135890000Y-158365001D01*
X135890005Y-158365000D01*
X147319995Y-158365000D01*
X147320000Y-158365001D01*
X147602484Y-158308810D01*
X147658675Y-158297633D01*
X147945790Y-158105790D01*
X150110000Y-155941580D01*
X152274208Y-158105787D01*
X152274210Y-158105790D01*
X152561325Y-158297633D01*
X152617516Y-158308810D01*
X152900000Y-158365001D01*
X152900005Y-158365000D01*
X181609995Y-158365000D01*
X181610000Y-158365001D01*
X181892484Y-158308810D01*
X181948675Y-158297633D01*
X182235790Y-158105790D01*
X182235791Y-158105789D01*
X188585787Y-151755792D01*
X188585790Y-151755790D01*
X188777633Y-151468675D01*
X188777633Y-151468674D01*
X188845001Y-151130000D01*
X188845000Y-151129995D01*
X188845000Y-119172302D01*
X200520856Y-119172302D01*
X200548638Y-119727368D01*
X200707603Y-120111143D01*
X200949787Y-120180608D01*
X201750395Y-119380000D01*
X202109605Y-119380000D01*
X202910213Y-120180608D01*
X203152397Y-120111143D01*
X203339144Y-119587698D01*
X203311362Y-119032632D01*
X203152397Y-118648857D01*
X202910213Y-118579392D01*
X202109605Y-119380000D01*
X201750395Y-119380000D01*
X200949787Y-118579392D01*
X200707603Y-118648857D01*
X200520856Y-119172302D01*
X188845000Y-119172302D01*
X188845000Y-114666580D01*
X195946579Y-107565000D01*
X200839522Y-107565000D01*
X201137630Y-107863629D01*
X201345512Y-107949949D01*
X201139697Y-108034990D01*
X200746371Y-108427630D01*
X200533243Y-108940900D01*
X200532758Y-109496661D01*
X200744990Y-110010303D01*
X201137630Y-110403629D01*
X201345512Y-110489949D01*
X201139697Y-110574990D01*
X200746371Y-110967630D01*
X200533243Y-111480900D01*
X200532758Y-112036661D01*
X200744990Y-112550303D01*
X201137630Y-112943629D01*
X201345512Y-113029949D01*
X201139697Y-113114990D01*
X200746371Y-113507630D01*
X200533243Y-114020900D01*
X200532758Y-114576661D01*
X200744990Y-115090303D01*
X201137630Y-115483629D01*
X201345512Y-115569949D01*
X201139697Y-115654990D01*
X200746371Y-116047630D01*
X200533243Y-116560900D01*
X200532758Y-117116661D01*
X200744990Y-117630303D01*
X201137630Y-118023629D01*
X201329727Y-118103395D01*
X201198857Y-118157603D01*
X201129392Y-118399787D01*
X201930000Y-119200395D01*
X202730608Y-118399787D01*
X202661143Y-118157603D01*
X202520682Y-118107491D01*
X202720303Y-118025010D01*
X203113629Y-117632370D01*
X203326757Y-117119100D01*
X203327242Y-116563339D01*
X203115010Y-116049697D01*
X202722370Y-115656371D01*
X202514488Y-115570051D01*
X202720303Y-115485010D01*
X203113629Y-115092370D01*
X203326757Y-114579100D01*
X203327242Y-114023339D01*
X203115010Y-113509697D01*
X202722370Y-113116371D01*
X202514488Y-113030051D01*
X202720303Y-112945010D01*
X203113629Y-112552370D01*
X203326757Y-112039100D01*
X203327242Y-111483339D01*
X203115010Y-110969697D01*
X202722370Y-110576371D01*
X202514488Y-110490051D01*
X202720303Y-110405010D01*
X203113629Y-110012370D01*
X203326757Y-109499100D01*
X203327242Y-108943339D01*
X203115010Y-108429697D01*
X202722370Y-108036371D01*
X202514488Y-107950051D01*
X202720303Y-107865010D01*
X203113629Y-107472370D01*
X203326757Y-106959100D01*
X203327242Y-106403339D01*
X203115010Y-105889697D01*
X202722370Y-105496371D01*
X202209100Y-105283243D01*
X201653339Y-105282758D01*
X201139697Y-105494990D01*
X200839163Y-105795000D01*
X196465000Y-105795000D01*
X196465000Y-100330000D01*
X196397633Y-99991325D01*
X196205790Y-99704210D01*
X196205787Y-99704208D01*
X193665790Y-97164210D01*
X193638221Y-97145789D01*
X193378675Y-96972367D01*
X193322484Y-96961190D01*
X193040000Y-96904999D01*
X193039995Y-96905000D01*
X187542537Y-96905000D01*
X187624838Y-96706799D01*
X187625162Y-96334833D01*
X187483117Y-95991057D01*
X187220327Y-95727808D01*
X187099013Y-95677434D01*
X184775790Y-93354210D01*
X184488675Y-93162367D01*
X184432484Y-93151190D01*
X184150000Y-93094999D01*
X184149995Y-93095000D01*
X138430000Y-93095000D01*
X138091325Y-93162367D01*
X137804210Y-93354210D01*
X137804208Y-93354213D01*
X135264210Y-95894210D01*
X135072367Y-96181325D01*
X135072367Y-96181326D01*
X135004999Y-96520000D01*
X135005000Y-96520005D01*
X135005000Y-101029797D01*
X134907122Y-101095197D01*
X134605807Y-101546145D01*
X134500000Y-102078075D01*
X134500000Y-103661925D01*
X134605807Y-104193855D01*
X134907122Y-104644803D01*
X135358070Y-104946118D01*
X135890000Y-105051925D01*
X136421930Y-104946118D01*
X136872878Y-104644803D01*
X137160000Y-104215096D01*
X137447122Y-104644803D01*
X137545000Y-104710203D01*
X137545000Y-109219995D01*
X137544999Y-109220000D01*
X137545000Y-109220005D01*
X137545000Y-109399522D01*
X137246371Y-109697630D01*
X137160051Y-109905512D01*
X137075010Y-109699697D01*
X136682370Y-109306371D01*
X136169100Y-109093243D01*
X135744452Y-109092872D01*
X135505000Y-108853420D01*
X135505000Y-107950000D01*
X135437633Y-107611325D01*
X135245790Y-107324210D01*
X135245787Y-107324208D01*
X132705790Y-104784210D01*
X132705787Y-104784208D01*
X131695000Y-103773420D01*
X131695000Y-103538655D01*
X131856757Y-103149100D01*
X131857242Y-102593339D01*
X131645010Y-102079697D01*
X131252370Y-101686371D01*
X130739100Y-101473243D01*
X130183339Y-101472758D01*
X129669697Y-101684990D01*
X129459979Y-101894342D01*
X129252370Y-101686371D01*
X128739100Y-101473243D01*
X128183339Y-101472758D01*
X127669697Y-101684990D01*
X127459979Y-101894342D01*
X127252370Y-101686371D01*
X126739100Y-101473243D01*
X126183339Y-101472758D01*
X125669697Y-101684990D01*
X125459979Y-101894342D01*
X125252370Y-101686371D01*
X124739100Y-101473243D01*
X124183339Y-101472758D01*
X123669697Y-101684990D01*
X123276371Y-102077630D01*
X123063243Y-102590900D01*
X123062758Y-103146661D01*
X123274990Y-103660303D01*
X123575000Y-103960837D01*
X123575000Y-106679995D01*
X123574999Y-106680000D01*
X123622493Y-106918761D01*
X123642367Y-107018675D01*
X123834209Y-107305789D01*
X123834210Y-107305790D01*
X125104208Y-108575787D01*
X125104210Y-108575790D01*
X125391325Y-108767633D01*
X125730000Y-108835001D01*
X125730005Y-108835000D01*
X126633420Y-108835000D01*
X127291390Y-109492969D01*
X127086371Y-109697630D01*
X127006605Y-109889727D01*
X126952397Y-109758857D01*
X126710213Y-109689392D01*
X125909605Y-110490000D01*
X126710213Y-111290608D01*
X126952397Y-111221143D01*
X127002509Y-111080682D01*
X127084990Y-111280303D01*
X127477630Y-111673629D01*
X127990900Y-111886757D01*
X128546661Y-111887242D01*
X129060303Y-111675010D01*
X129453629Y-111282370D01*
X129539949Y-111074488D01*
X129624990Y-111280303D01*
X130017630Y-111673629D01*
X130530900Y-111886757D01*
X131086661Y-111887242D01*
X131600303Y-111675010D01*
X131993629Y-111282370D01*
X132079949Y-111074488D01*
X132164990Y-111280303D01*
X132557630Y-111673629D01*
X133070900Y-111886757D01*
X133626661Y-111887242D01*
X134140303Y-111675010D01*
X134533629Y-111282370D01*
X134619949Y-111074488D01*
X134704990Y-111280303D01*
X135097630Y-111673629D01*
X135610900Y-111886757D01*
X136166661Y-111887242D01*
X136680303Y-111675010D01*
X137073629Y-111282370D01*
X137159949Y-111074488D01*
X137244990Y-111280303D01*
X137637630Y-111673629D01*
X138150900Y-111886757D01*
X138706661Y-111887242D01*
X139220303Y-111675010D01*
X139425457Y-111470213D01*
X140169392Y-111470213D01*
X140238857Y-111712397D01*
X140762302Y-111899144D01*
X141317368Y-111871362D01*
X141701143Y-111712397D01*
X141770608Y-111470213D01*
X140970000Y-110669605D01*
X140169392Y-111470213D01*
X139425457Y-111470213D01*
X139613629Y-111282370D01*
X139693395Y-111090273D01*
X139747603Y-111221143D01*
X139989787Y-111290608D01*
X140790395Y-110490000D01*
X141149605Y-110490000D01*
X141950213Y-111290608D01*
X142192397Y-111221143D01*
X142379144Y-110697698D01*
X142351362Y-110142632D01*
X142192397Y-109758857D01*
X141950213Y-109689392D01*
X141149605Y-110490000D01*
X140790395Y-110490000D01*
X139989787Y-109689392D01*
X139747603Y-109758857D01*
X139697491Y-109899318D01*
X139615010Y-109699697D01*
X139425432Y-109509787D01*
X140169392Y-109509787D01*
X140970000Y-110310395D01*
X141770608Y-109509787D01*
X141701143Y-109267603D01*
X141177698Y-109080856D01*
X140622632Y-109108638D01*
X140238857Y-109267603D01*
X140169392Y-109509787D01*
X139425432Y-109509787D01*
X139408627Y-109492953D01*
X140066579Y-108835000D01*
X146049995Y-108835000D01*
X146050000Y-108835001D01*
X146332484Y-108778810D01*
X146388675Y-108767633D01*
X146675790Y-108575790D01*
X146675791Y-108575789D01*
X149215787Y-106035792D01*
X149215790Y-106035790D01*
X149407633Y-105748675D01*
X149475000Y-105410000D01*
X149475000Y-104710203D01*
X149572878Y-104644803D01*
X149872751Y-104196013D01*
X149894408Y-104269263D01*
X150236924Y-104692681D01*
X150715403Y-104952793D01*
X150788029Y-104967277D01*
X151003000Y-104844683D01*
X151003000Y-102997000D01*
X151257000Y-102997000D01*
X151257000Y-104844683D01*
X151471971Y-104967277D01*
X151544597Y-104952793D01*
X152023076Y-104692681D01*
X152365592Y-104269263D01*
X152520000Y-103747000D01*
X152520000Y-102997000D01*
X151257000Y-102997000D01*
X151003000Y-102997000D01*
X150983000Y-102997000D01*
X150983000Y-102743000D01*
X151003000Y-102743000D01*
X151003000Y-100895317D01*
X151257000Y-100895317D01*
X151257000Y-102743000D01*
X152520000Y-102743000D01*
X152520000Y-101993000D01*
X152365592Y-101470737D01*
X152023076Y-101047319D01*
X151544597Y-100787207D01*
X151471971Y-100772723D01*
X151257000Y-100895317D01*
X151003000Y-100895317D01*
X150788029Y-100772723D01*
X150715403Y-100787207D01*
X150236924Y-101047319D01*
X149894408Y-101470737D01*
X149872751Y-101543987D01*
X149572878Y-101095197D01*
X149475000Y-101029797D01*
X149475000Y-98675000D01*
X165485000Y-98675000D01*
X165485000Y-105043421D01*
X163463420Y-107065000D01*
X162560005Y-107065000D01*
X162560000Y-107064999D01*
X162221325Y-107132367D01*
X161934210Y-107324210D01*
X161934208Y-107324213D01*
X160664210Y-108594210D01*
X160472367Y-108881325D01*
X160472367Y-108881326D01*
X160404999Y-109220000D01*
X160405000Y-109220005D01*
X160405000Y-109399522D01*
X160106371Y-109697630D01*
X160020051Y-109905512D01*
X159935010Y-109699697D01*
X159728627Y-109492953D01*
X161915787Y-107305792D01*
X161915790Y-107305790D01*
X162107633Y-107018675D01*
X162175000Y-106680000D01*
X162175000Y-105776580D01*
X162835787Y-105115792D01*
X162835790Y-105115790D01*
X163027633Y-104828675D01*
X163095000Y-104490000D01*
X163095000Y-103960478D01*
X163393629Y-103662370D01*
X163606757Y-103149100D01*
X163607242Y-102593339D01*
X163395010Y-102079697D01*
X163002370Y-101686371D01*
X162489100Y-101473243D01*
X161933339Y-101472758D01*
X161419697Y-101684990D01*
X161209979Y-101894342D01*
X161002370Y-101686371D01*
X160489100Y-101473243D01*
X159933339Y-101472758D01*
X159419697Y-101684990D01*
X159209979Y-101894342D01*
X159002370Y-101686371D01*
X158489100Y-101473243D01*
X157933339Y-101472758D01*
X157419697Y-101684990D01*
X157209979Y-101894342D01*
X157002370Y-101686371D01*
X156489100Y-101473243D01*
X155933339Y-101472758D01*
X155419697Y-101684990D01*
X155026371Y-102077630D01*
X154813243Y-102590900D01*
X154812872Y-103015548D01*
X154314210Y-103514210D01*
X154122367Y-103801325D01*
X154122367Y-103801326D01*
X154054999Y-104140000D01*
X154055000Y-104140005D01*
X154055000Y-105043421D01*
X150504210Y-108594210D01*
X150312367Y-108881325D01*
X150312367Y-108881326D01*
X150244999Y-109220000D01*
X150245000Y-109220005D01*
X150245000Y-109399522D01*
X149946371Y-109697630D01*
X149866605Y-109889727D01*
X149812397Y-109758857D01*
X149570213Y-109689392D01*
X148769605Y-110490000D01*
X149570213Y-111290608D01*
X149812397Y-111221143D01*
X149862509Y-111080682D01*
X149944990Y-111280303D01*
X150337630Y-111673629D01*
X150850900Y-111886757D01*
X151406661Y-111887242D01*
X151920303Y-111675010D01*
X152313629Y-111282370D01*
X152399949Y-111074488D01*
X152484990Y-111280303D01*
X152877630Y-111673629D01*
X153390900Y-111886757D01*
X153946661Y-111887242D01*
X154460303Y-111675010D01*
X154853629Y-111282370D01*
X154939949Y-111074488D01*
X155024990Y-111280303D01*
X155417630Y-111673629D01*
X155930900Y-111886757D01*
X156486661Y-111887242D01*
X157000303Y-111675010D01*
X157393629Y-111282370D01*
X157479949Y-111074488D01*
X157564990Y-111280303D01*
X157957630Y-111673629D01*
X158470900Y-111886757D01*
X159026661Y-111887242D01*
X159540303Y-111675010D01*
X159933629Y-111282370D01*
X160019949Y-111074488D01*
X160104990Y-111280303D01*
X160497630Y-111673629D01*
X161010900Y-111886757D01*
X161566661Y-111887242D01*
X162080303Y-111675010D01*
X162285457Y-111470213D01*
X163029392Y-111470213D01*
X163098857Y-111712397D01*
X163622302Y-111899144D01*
X164177368Y-111871362D01*
X164561143Y-111712397D01*
X164630608Y-111470213D01*
X163830000Y-110669605D01*
X163029392Y-111470213D01*
X162285457Y-111470213D01*
X162473629Y-111282370D01*
X162553395Y-111090273D01*
X162607603Y-111221143D01*
X162849787Y-111290608D01*
X163650395Y-110490000D01*
X164009605Y-110490000D01*
X164810213Y-111290608D01*
X165052397Y-111221143D01*
X165239144Y-110697698D01*
X165211362Y-110142632D01*
X165052397Y-109758857D01*
X164810213Y-109689392D01*
X164009605Y-110490000D01*
X163650395Y-110490000D01*
X162849787Y-109689392D01*
X162607603Y-109758857D01*
X162557491Y-109899318D01*
X162475010Y-109699697D01*
X162285432Y-109509787D01*
X163029392Y-109509787D01*
X163830000Y-110310395D01*
X164630608Y-109509787D01*
X164561143Y-109267603D01*
X164037698Y-109080856D01*
X163482632Y-109108638D01*
X163098857Y-109267603D01*
X163029392Y-109509787D01*
X162285432Y-109509787D01*
X162268627Y-109492953D01*
X162926579Y-108835000D01*
X163829995Y-108835000D01*
X163830000Y-108835001D01*
X164112484Y-108778810D01*
X164168675Y-108767633D01*
X164455790Y-108575790D01*
X166491317Y-106540263D01*
X166647709Y-106918761D01*
X167397293Y-107669655D01*
X168377173Y-108076536D01*
X169438172Y-108077462D01*
X170418761Y-107672291D01*
X171169655Y-106922707D01*
X171576536Y-105942827D01*
X171577462Y-104881828D01*
X171172291Y-103901239D01*
X170422707Y-103150345D01*
X169442827Y-102743464D01*
X168381828Y-102742538D01*
X167401239Y-103147709D01*
X167255000Y-103293693D01*
X167255000Y-98675000D01*
X192673420Y-98675000D01*
X194695000Y-100696579D01*
X194695000Y-106313421D01*
X187334210Y-113674210D01*
X187142367Y-113961325D01*
X187142367Y-113961326D01*
X187074999Y-114300000D01*
X187075000Y-114300005D01*
X187075000Y-150763421D01*
X181243420Y-156595000D01*
X153266579Y-156595000D01*
X150995000Y-154323420D01*
X150995000Y-149941446D01*
X151145317Y-149913162D01*
X151361441Y-149774090D01*
X151506431Y-149561890D01*
X151541906Y-149386709D01*
X151725104Y-149614500D01*
X152218181Y-149884367D01*
X152300961Y-149901904D01*
X152523000Y-149779915D01*
X152523000Y-148287000D01*
X152503000Y-148287000D01*
X152503000Y-148033000D01*
X152523000Y-148033000D01*
X152523000Y-146540085D01*
X152300961Y-146418096D01*
X152218181Y-146435633D01*
X151725104Y-146705500D01*
X151542798Y-146932182D01*
X151513162Y-146774683D01*
X151374090Y-146558559D01*
X151161890Y-146413569D01*
X150995000Y-146379773D01*
X150995000Y-139816580D01*
X154295787Y-136515792D01*
X154295790Y-136515790D01*
X154487633Y-136228675D01*
X154529690Y-136017242D01*
X154555001Y-135890000D01*
X154555000Y-135889995D01*
X154555000Y-130620587D01*
X154847698Y-130328400D01*
X155059758Y-129817701D01*
X155060241Y-129264725D01*
X154849072Y-128753657D01*
X154458400Y-128362302D01*
X154236196Y-128270035D01*
X154456343Y-128179072D01*
X154847698Y-127788400D01*
X155059758Y-127277701D01*
X155060241Y-126724725D01*
X154849072Y-126213657D01*
X154555000Y-125919071D01*
X154555000Y-124280478D01*
X154853629Y-123982370D01*
X154939949Y-123774488D01*
X155024990Y-123980303D01*
X155417630Y-124373629D01*
X155930900Y-124586757D01*
X156486661Y-124587242D01*
X157000303Y-124375010D01*
X157393629Y-123982370D01*
X157407070Y-123950000D01*
X157552469Y-123950000D01*
X157564990Y-123980303D01*
X157957630Y-124373629D01*
X158470900Y-124586757D01*
X159026661Y-124587242D01*
X159540303Y-124375010D01*
X159933629Y-123982370D01*
X160019949Y-123774488D01*
X160104990Y-123980303D01*
X160405000Y-124280837D01*
X160405000Y-124459995D01*
X160404999Y-124460000D01*
X160430310Y-124587242D01*
X160472367Y-124798675D01*
X160664209Y-125085789D01*
X160664210Y-125085790D01*
X161934208Y-126355787D01*
X161934210Y-126355790D01*
X162221325Y-126547633D01*
X162560000Y-126615001D01*
X162560005Y-126615000D01*
X166003420Y-126615000D01*
X167014208Y-127625787D01*
X167014210Y-127625790D01*
X167260423Y-127790303D01*
X167301325Y-127817633D01*
X167640000Y-127885001D01*
X167640005Y-127885000D01*
X172899522Y-127885000D01*
X173197630Y-128183629D01*
X173405512Y-128269949D01*
X173199697Y-128354990D01*
X172806371Y-128747630D01*
X172593243Y-129260900D01*
X172592758Y-129816661D01*
X172804990Y-130330303D01*
X173197630Y-130723629D01*
X173405512Y-130809949D01*
X173199697Y-130894990D01*
X172806371Y-131287630D01*
X172593243Y-131800900D01*
X172592758Y-132356661D01*
X172804990Y-132870303D01*
X173197630Y-133263629D01*
X173405512Y-133349949D01*
X173199697Y-133434990D01*
X172806371Y-133827630D01*
X172593243Y-134340900D01*
X172592758Y-134896661D01*
X172804990Y-135410303D01*
X173197630Y-135803629D01*
X173405512Y-135889949D01*
X173199697Y-135974990D01*
X172806371Y-136367630D01*
X172593243Y-136880900D01*
X172592758Y-137436661D01*
X172804990Y-137950303D01*
X173197630Y-138343629D01*
X173405512Y-138429949D01*
X173199697Y-138514990D01*
X172899163Y-138815000D01*
X163830005Y-138815000D01*
X163830000Y-138814999D01*
X163547516Y-138871190D01*
X163491325Y-138882367D01*
X163204210Y-139074210D01*
X163204208Y-139074213D01*
X157104210Y-145174210D01*
X156912367Y-145461325D01*
X156912367Y-145461326D01*
X156844999Y-145800000D01*
X156845000Y-145800005D01*
X156845000Y-146673670D01*
X156715302Y-146760332D01*
X156460000Y-147142418D01*
X156204698Y-146760332D01*
X155739151Y-146449263D01*
X155190000Y-146340030D01*
X154640849Y-146449263D01*
X154175302Y-146760332D01*
X153922851Y-147138151D01*
X153574896Y-146705500D01*
X153081819Y-146435633D01*
X152999039Y-146418096D01*
X152777000Y-146540085D01*
X152777000Y-148033000D01*
X152797000Y-148033000D01*
X152797000Y-148287000D01*
X152777000Y-148287000D01*
X152777000Y-149779915D01*
X152999039Y-149901904D01*
X153081819Y-149884367D01*
X153574896Y-149614500D01*
X153922851Y-149181849D01*
X154175302Y-149559668D01*
X154305000Y-149646330D01*
X154305000Y-150109995D01*
X154304999Y-150110000D01*
X154346216Y-150317207D01*
X154372367Y-150448675D01*
X154409475Y-150504211D01*
X154564210Y-150735790D01*
X155584208Y-151755787D01*
X155584210Y-151755790D01*
X155871325Y-151947633D01*
X155927516Y-151958810D01*
X156210000Y-152015001D01*
X156210005Y-152015000D01*
X166792887Y-152015000D01*
X166650345Y-152157293D01*
X166243464Y-153137173D01*
X166242538Y-154198172D01*
X166647709Y-155178761D01*
X167397293Y-155929655D01*
X168377173Y-156336536D01*
X169438172Y-156337462D01*
X170418761Y-155932291D01*
X171169655Y-155182707D01*
X171576536Y-154202827D01*
X171577253Y-153380213D01*
X173189392Y-153380213D01*
X173258857Y-153622397D01*
X173782302Y-153809144D01*
X174337368Y-153781362D01*
X174721143Y-153622397D01*
X174790608Y-153380213D01*
X173990000Y-152579605D01*
X173189392Y-153380213D01*
X171577253Y-153380213D01*
X171577462Y-153141828D01*
X171185126Y-152192302D01*
X172580856Y-152192302D01*
X172608638Y-152747368D01*
X172767603Y-153131143D01*
X173009787Y-153200608D01*
X173810395Y-152400000D01*
X174169605Y-152400000D01*
X174970213Y-153200608D01*
X175212397Y-153131143D01*
X175399144Y-152607698D01*
X175371362Y-152052632D01*
X175212397Y-151668857D01*
X174970213Y-151599392D01*
X174169605Y-152400000D01*
X173810395Y-152400000D01*
X173009787Y-151599392D01*
X172767603Y-151668857D01*
X172580856Y-152192302D01*
X171185126Y-152192302D01*
X171172291Y-152161239D01*
X170422707Y-151410345D01*
X170040105Y-151251475D01*
X172992969Y-148298610D01*
X173197630Y-148503629D01*
X173405512Y-148589949D01*
X173199697Y-148674990D01*
X172806371Y-149067630D01*
X172593243Y-149580900D01*
X172592758Y-150136661D01*
X172804990Y-150650303D01*
X173197630Y-151043629D01*
X173389727Y-151123395D01*
X173258857Y-151177603D01*
X173189392Y-151419787D01*
X173990000Y-152220395D01*
X174790608Y-151419787D01*
X174721143Y-151177603D01*
X174580682Y-151127491D01*
X174780303Y-151045010D01*
X175173629Y-150652370D01*
X175386757Y-150139100D01*
X175387242Y-149583339D01*
X175175010Y-149069697D01*
X174782370Y-148676371D01*
X174574488Y-148590051D01*
X174780303Y-148505010D01*
X175173629Y-148112370D01*
X175386757Y-147599100D01*
X175387242Y-147043339D01*
X175175010Y-146529697D01*
X174782370Y-146136371D01*
X174574488Y-146050051D01*
X174780303Y-145965010D01*
X175173629Y-145572370D01*
X175386757Y-145059100D01*
X175387242Y-144503339D01*
X175175010Y-143989697D01*
X174782370Y-143596371D01*
X174574488Y-143510051D01*
X174780303Y-143425010D01*
X175173629Y-143032370D01*
X175386757Y-142519100D01*
X175387242Y-141963339D01*
X175175010Y-141449697D01*
X174782370Y-141056371D01*
X174574488Y-140970051D01*
X174780303Y-140885010D01*
X175173629Y-140492370D01*
X175386757Y-139979100D01*
X175387242Y-139423339D01*
X175175010Y-138909697D01*
X174782370Y-138516371D01*
X174574488Y-138430051D01*
X174780303Y-138345010D01*
X175173629Y-137952370D01*
X175386757Y-137439100D01*
X175387242Y-136883339D01*
X175175010Y-136369697D01*
X174782370Y-135976371D01*
X174574488Y-135890051D01*
X174780303Y-135805010D01*
X175173629Y-135412370D01*
X175386757Y-134899100D01*
X175387242Y-134343339D01*
X175175010Y-133829697D01*
X174782370Y-133436371D01*
X174574488Y-133350051D01*
X174780303Y-133265010D01*
X175173629Y-132872370D01*
X175386757Y-132359100D01*
X175387242Y-131803339D01*
X175175010Y-131289697D01*
X174782370Y-130896371D01*
X174574488Y-130810051D01*
X174780303Y-130725010D01*
X175173629Y-130332370D01*
X175386757Y-129819100D01*
X175387242Y-129263339D01*
X175175010Y-128749697D01*
X174782370Y-128356371D01*
X174574488Y-128270051D01*
X174780303Y-128185010D01*
X175173629Y-127792370D01*
X175386757Y-127279100D01*
X175387242Y-126723339D01*
X175175010Y-126209697D01*
X174782370Y-125816371D01*
X174574488Y-125730051D01*
X174780303Y-125645010D01*
X175173629Y-125252370D01*
X175386757Y-124739100D01*
X175387242Y-124183339D01*
X175175010Y-123669697D01*
X174782370Y-123276371D01*
X174574488Y-123190051D01*
X174780303Y-123105010D01*
X175173629Y-122712370D01*
X175386757Y-122199100D01*
X175387242Y-121643339D01*
X175175010Y-121129697D01*
X174782370Y-120736371D01*
X174574488Y-120650051D01*
X174780303Y-120565010D01*
X175173629Y-120172370D01*
X175386757Y-119659100D01*
X175387242Y-119103339D01*
X175175010Y-118589697D01*
X174782370Y-118196371D01*
X174574488Y-118110051D01*
X174780303Y-118025010D01*
X175173629Y-117632370D01*
X175386757Y-117119100D01*
X175387242Y-116563339D01*
X175175010Y-116049697D01*
X174782370Y-115656371D01*
X174574488Y-115570051D01*
X174780303Y-115485010D01*
X175173629Y-115092370D01*
X175386757Y-114579100D01*
X175387242Y-114023339D01*
X175175010Y-113509697D01*
X174782370Y-113116371D01*
X174574488Y-113030051D01*
X174780303Y-112945010D01*
X175080837Y-112645000D01*
X179069995Y-112645000D01*
X179070000Y-112645001D01*
X179352484Y-112588810D01*
X179408675Y-112577633D01*
X179695790Y-112385790D01*
X187098834Y-104982745D01*
X187218943Y-104933117D01*
X187482192Y-104670327D01*
X187624838Y-104326799D01*
X187625162Y-103954833D01*
X187483117Y-103611057D01*
X187220327Y-103347808D01*
X186876799Y-103205162D01*
X186504833Y-103204838D01*
X186161057Y-103346883D01*
X185897808Y-103609673D01*
X185847434Y-103730987D01*
X184966405Y-104612016D01*
X185084838Y-104326799D01*
X185085162Y-103954833D01*
X184943117Y-103611057D01*
X184680327Y-103347808D01*
X184336799Y-103205162D01*
X183964833Y-103204838D01*
X183621057Y-103346883D01*
X183357808Y-103609673D01*
X183307434Y-103730987D01*
X178703420Y-108335000D01*
X175080478Y-108335000D01*
X174782370Y-108036371D01*
X174574488Y-107950051D01*
X174780303Y-107865010D01*
X175173629Y-107472370D01*
X175386757Y-106959100D01*
X175387242Y-106403339D01*
X175175010Y-105889697D01*
X174782370Y-105496371D01*
X174269100Y-105283243D01*
X173713339Y-105282758D01*
X173199697Y-105494990D01*
X172806371Y-105887630D01*
X172593243Y-106400900D01*
X172592758Y-106956661D01*
X172804990Y-107470303D01*
X173197630Y-107863629D01*
X173405512Y-107949949D01*
X173199697Y-108034990D01*
X172806371Y-108427630D01*
X172593243Y-108940900D01*
X172592758Y-109496661D01*
X172804990Y-110010303D01*
X173197630Y-110403629D01*
X173405512Y-110489949D01*
X173199697Y-110574990D01*
X172806371Y-110967630D01*
X172593243Y-111480900D01*
X172592758Y-112036661D01*
X172804990Y-112550303D01*
X173197630Y-112943629D01*
X173405512Y-113029949D01*
X173199697Y-113114990D01*
X172806371Y-113507630D01*
X172593243Y-114020900D01*
X172592758Y-114576661D01*
X172804990Y-115090303D01*
X173197630Y-115483629D01*
X173405512Y-115569949D01*
X173199697Y-115654990D01*
X172899163Y-115955000D01*
X171450000Y-115955000D01*
X171111325Y-116022367D01*
X170824210Y-116214210D01*
X170824208Y-116214213D01*
X168543420Y-118495000D01*
X139700005Y-118495000D01*
X139700000Y-118494999D01*
X139361325Y-118562367D01*
X139074210Y-118754210D01*
X139074208Y-118754213D01*
X137804210Y-120024210D01*
X137612367Y-120311325D01*
X137612367Y-120311326D01*
X137544999Y-120650000D01*
X137545000Y-120650005D01*
X137545000Y-122099522D01*
X137246371Y-122397630D01*
X137160051Y-122605512D01*
X137075010Y-122399697D01*
X136682370Y-122006371D01*
X136169100Y-121793243D01*
X135613339Y-121792758D01*
X135099697Y-122004990D01*
X134706371Y-122397630D01*
X134692930Y-122430000D01*
X134547531Y-122430000D01*
X134535010Y-122399697D01*
X134142370Y-122006371D01*
X133629100Y-121793243D01*
X133073339Y-121792758D01*
X132559697Y-122004990D01*
X132166371Y-122397630D01*
X132080051Y-122605512D01*
X131995010Y-122399697D01*
X131602370Y-122006371D01*
X131089100Y-121793243D01*
X130533339Y-121792758D01*
X130019697Y-122004990D01*
X129626371Y-122397630D01*
X129540051Y-122605512D01*
X129455010Y-122399697D01*
X129062370Y-122006371D01*
X128549100Y-121793243D01*
X127993339Y-121792758D01*
X127479697Y-122004990D01*
X127086371Y-122397630D01*
X127000051Y-122605512D01*
X126915010Y-122399697D01*
X126522370Y-122006371D01*
X126009100Y-121793243D01*
X125453339Y-121792758D01*
X124939697Y-122004990D01*
X124586237Y-122357833D01*
X124555162Y-122192683D01*
X124416090Y-121976559D01*
X124203890Y-121831569D01*
X123952000Y-121780560D01*
X122428000Y-121780560D01*
X122192683Y-121824838D01*
X121976559Y-121963910D01*
X121831569Y-122176110D01*
X121780560Y-122428000D01*
X120265000Y-122428000D01*
X120265000Y-117682532D01*
X123487073Y-117682532D01*
X123585736Y-117949387D01*
X124195461Y-118175908D01*
X124845460Y-118151856D01*
X125334264Y-117949387D01*
X125432927Y-117682532D01*
X146347073Y-117682532D01*
X146445736Y-117949387D01*
X147055461Y-118175908D01*
X147705460Y-118151856D01*
X148194264Y-117949387D01*
X148292927Y-117682532D01*
X147320000Y-116709605D01*
X146347073Y-117682532D01*
X125432927Y-117682532D01*
X124460000Y-116709605D01*
X123487073Y-117682532D01*
X120265000Y-117682532D01*
X120265000Y-117206580D01*
X121206118Y-116265461D01*
X122814092Y-116265461D01*
X122838144Y-116915460D01*
X123040613Y-117404264D01*
X123307468Y-117502927D01*
X124280395Y-116530000D01*
X124639605Y-116530000D01*
X125612532Y-117502927D01*
X125879387Y-117404264D01*
X126105908Y-116794539D01*
X126086331Y-116265461D01*
X145674092Y-116265461D01*
X145698144Y-116915460D01*
X145900613Y-117404264D01*
X146167468Y-117502927D01*
X147140395Y-116530000D01*
X147499605Y-116530000D01*
X148472532Y-117502927D01*
X148739387Y-117404264D01*
X148965908Y-116794539D01*
X148941856Y-116144540D01*
X148739387Y-115655736D01*
X148472532Y-115557073D01*
X147499605Y-116530000D01*
X147140395Y-116530000D01*
X146167468Y-115557073D01*
X145900613Y-115655736D01*
X145674092Y-116265461D01*
X126086331Y-116265461D01*
X126081856Y-116144540D01*
X125879387Y-115655736D01*
X125612532Y-115557073D01*
X124639605Y-116530000D01*
X124280395Y-116530000D01*
X123307468Y-115557073D01*
X123040613Y-115655736D01*
X122814092Y-116265461D01*
X121206118Y-116265461D01*
X122286579Y-115185000D01*
X123558233Y-115185000D01*
X123487073Y-115377468D01*
X124460000Y-116350395D01*
X125432927Y-115377468D01*
X125361767Y-115185000D01*
X146418233Y-115185000D01*
X146347073Y-115377468D01*
X147320000Y-116350395D01*
X148292927Y-115377468D01*
X148194264Y-115110613D01*
X147856810Y-114985244D01*
X147945790Y-114925790D01*
X148111731Y-114677440D01*
X148320000Y-114677440D01*
X148555317Y-114633162D01*
X148771441Y-114494090D01*
X148916431Y-114281890D01*
X148967440Y-114030000D01*
X148967440Y-112030000D01*
X148937574Y-111871277D01*
X149321143Y-111712397D01*
X149390608Y-111470213D01*
X148590000Y-110669605D01*
X148575858Y-110683748D01*
X148396253Y-110504143D01*
X148410395Y-110490000D01*
X147609787Y-109689392D01*
X147367603Y-109758857D01*
X147317491Y-109899318D01*
X147235010Y-109699697D01*
X147045432Y-109509787D01*
X147789392Y-109509787D01*
X148590000Y-110310395D01*
X149390608Y-109509787D01*
X149321143Y-109267603D01*
X148797698Y-109080856D01*
X148242632Y-109108638D01*
X147858857Y-109267603D01*
X147789392Y-109509787D01*
X147045432Y-109509787D01*
X146842370Y-109306371D01*
X146329100Y-109093243D01*
X145773339Y-109092758D01*
X145259697Y-109304990D01*
X144866371Y-109697630D01*
X144653243Y-110210900D01*
X144652758Y-110766661D01*
X144864990Y-111280303D01*
X145165000Y-111580837D01*
X145165000Y-113029995D01*
X145164999Y-113030000D01*
X145221190Y-113312484D01*
X145232367Y-113368675D01*
X145263320Y-113415000D01*
X126107440Y-113415000D01*
X126107440Y-112030000D01*
X126077574Y-111871277D01*
X126461143Y-111712397D01*
X126530608Y-111470213D01*
X125730000Y-110669605D01*
X125715858Y-110683748D01*
X125536253Y-110504143D01*
X125550395Y-110490000D01*
X124749787Y-109689392D01*
X124507603Y-109758857D01*
X124457491Y-109899318D01*
X124375010Y-109699697D01*
X124185432Y-109509787D01*
X124929392Y-109509787D01*
X125730000Y-110310395D01*
X126530608Y-109509787D01*
X126461143Y-109267603D01*
X125937698Y-109080856D01*
X125382632Y-109108638D01*
X124998857Y-109267603D01*
X124929392Y-109509787D01*
X124185432Y-109509787D01*
X123982370Y-109306371D01*
X123469100Y-109093243D01*
X122913339Y-109092758D01*
X122399697Y-109304990D01*
X122006371Y-109697630D01*
X121793243Y-110210900D01*
X121792758Y-110766661D01*
X122004990Y-111280303D01*
X122305000Y-111580837D01*
X122305000Y-113029995D01*
X122304999Y-113030000D01*
X122361190Y-113312484D01*
X122372367Y-113368675D01*
X122403320Y-113415000D01*
X121920000Y-113415000D01*
X121581325Y-113482367D01*
X121294210Y-113674210D01*
X121294208Y-113674213D01*
X118754210Y-116214210D01*
X118562367Y-116501325D01*
X118562367Y-116501326D01*
X118494999Y-116840000D01*
X118495000Y-116840005D01*
X118495000Y-131713421D01*
X117484210Y-132724210D01*
X117292367Y-133011325D01*
X117292367Y-133011326D01*
X117224999Y-133350000D01*
X117225000Y-133350005D01*
X117225000Y-134619995D01*
X117224999Y-134620000D01*
X117262167Y-134806852D01*
X117292367Y-134958675D01*
X117427978Y-135161632D01*
X117484210Y-135245790D01*
X118001324Y-135762904D01*
X117581828Y-135762538D01*
X116601239Y-136167709D01*
X115850345Y-136917293D01*
X115443464Y-137897173D01*
X115442538Y-138958172D01*
X115010000Y-138958172D01*
X115010000Y-111018172D01*
X115442538Y-111018172D01*
X115847709Y-111998761D01*
X116597293Y-112749655D01*
X117577173Y-113156536D01*
X118638172Y-113157462D01*
X119618761Y-112752291D01*
X120369655Y-112002707D01*
X120776536Y-111022827D01*
X120777462Y-109961828D01*
X120372291Y-108981239D01*
X119622707Y-108230345D01*
X118642827Y-107823464D01*
X117581828Y-107822538D01*
X116601239Y-108227709D01*
X115850345Y-108977293D01*
X115443464Y-109957173D01*
X115442538Y-111018172D01*
X115010000Y-111018172D01*
X115010000Y-92150000D01*
X205030000Y-92150000D01*
X205030000Y-161850000D01*
G36*
X145424210Y-97164210D02*
X145232367Y-97451325D01*
X145232367Y-97451326D01*
X145164999Y-97790000D01*
X145165000Y-97790005D01*
X145165000Y-101029797D01*
X145067122Y-101095197D01*
X144765807Y-101546145D01*
X144660000Y-102078075D01*
X144660000Y-103661925D01*
X144765807Y-104193855D01*
X145067122Y-104644803D01*
X145518070Y-104946118D01*
X146050000Y-105051925D01*
X146581930Y-104946118D01*
X147032878Y-104644803D01*
X147320000Y-104215096D01*
X147607122Y-104644803D01*
X147705000Y-104710203D01*
X147705000Y-105043421D01*
X145683420Y-107065000D01*
X139700005Y-107065000D01*
X139700000Y-107064999D01*
X139361325Y-107132367D01*
X139315000Y-107163320D01*
X139315000Y-104710203D01*
X139412878Y-104644803D01*
X139712751Y-104196013D01*
X139734408Y-104269263D01*
X140076924Y-104692681D01*
X140555403Y-104952793D01*
X140628029Y-104967277D01*
X140843000Y-104844683D01*
X140843000Y-102997000D01*
X141097000Y-102997000D01*
X141097000Y-104844683D01*
X141311971Y-104967277D01*
X141384597Y-104952793D01*
X141863076Y-104692681D01*
X142205592Y-104269263D01*
X142360000Y-103747000D01*
X142360000Y-102997000D01*
X141097000Y-102997000D01*
X140843000Y-102997000D01*
X140823000Y-102997000D01*
X140823000Y-102743000D01*
X140843000Y-102743000D01*
X140843000Y-100895317D01*
X141097000Y-100895317D01*
X141097000Y-102743000D01*
X142360000Y-102743000D01*
X142360000Y-101993000D01*
X142205592Y-101470737D01*
X141863076Y-101047319D01*
X141384597Y-100787207D01*
X141311971Y-100772723D01*
X141097000Y-100895317D01*
X140843000Y-100895317D01*
X140628029Y-100772723D01*
X140555403Y-100787207D01*
X140076924Y-101047319D01*
X139734408Y-101470737D01*
X139712751Y-101543987D01*
X139412878Y-101095197D01*
X138961930Y-100793882D01*
X138430000Y-100688075D01*
X137898070Y-100793882D01*
X137447122Y-101095197D01*
X137160000Y-101524904D01*
X136872878Y-101095197D01*
X136775000Y-101029797D01*
X136775000Y-96886580D01*
X138796579Y-94865000D01*
X147723421Y-94865000D01*
X145424210Y-97164210D01*
X145424210Y-97164210D01*
G37*
X145424210Y-97164210D02*
X145232367Y-97451325D01*
X145232367Y-97451326D01*
X145164999Y-97790000D01*
X145165000Y-97790005D01*
X145165000Y-101029797D01*
X145067122Y-101095197D01*
X144765807Y-101546145D01*
X144660000Y-102078075D01*
X144660000Y-103661925D01*
X144765807Y-104193855D01*
X145067122Y-104644803D01*
X145518070Y-104946118D01*
X146050000Y-105051925D01*
X146581930Y-104946118D01*
X147032878Y-104644803D01*
X147320000Y-104215096D01*
X147607122Y-104644803D01*
X147705000Y-104710203D01*
X147705000Y-105043421D01*
X145683420Y-107065000D01*
X139700005Y-107065000D01*
X139700000Y-107064999D01*
X139361325Y-107132367D01*
X139315000Y-107163320D01*
X139315000Y-104710203D01*
X139412878Y-104644803D01*
X139712751Y-104196013D01*
X139734408Y-104269263D01*
X140076924Y-104692681D01*
X140555403Y-104952793D01*
X140628029Y-104967277D01*
X140843000Y-104844683D01*
X140843000Y-102997000D01*
X141097000Y-102997000D01*
X141097000Y-104844683D01*
X141311971Y-104967277D01*
X141384597Y-104952793D01*
X141863076Y-104692681D01*
X142205592Y-104269263D01*
X142360000Y-103747000D01*
X142360000Y-102997000D01*
X141097000Y-102997000D01*
X140843000Y-102997000D01*
X140823000Y-102997000D01*
X140823000Y-102743000D01*
X140843000Y-102743000D01*
X140843000Y-100895317D01*
X141097000Y-100895317D01*
X141097000Y-102743000D01*
X142360000Y-102743000D01*
X142360000Y-101993000D01*
X142205592Y-101470737D01*
X141863076Y-101047319D01*
X141384597Y-100787207D01*
X141311971Y-100772723D01*
X141097000Y-100895317D01*
X140843000Y-100895317D01*
X140628029Y-100772723D01*
X140555403Y-100787207D01*
X140076924Y-101047319D01*
X139734408Y-101470737D01*
X139712751Y-101543987D01*
X139412878Y-101095197D01*
X138961930Y-100793882D01*
X138430000Y-100688075D01*
X137898070Y-100793882D01*
X137447122Y-101095197D01*
X137160000Y-101524904D01*
X136872878Y-101095197D01*
X136775000Y-101029797D01*
X136775000Y-96886580D01*
X138796579Y-94865000D01*
X147723421Y-94865000D01*
X145424210Y-97164210D01*
M02*
